<svg xmlns="http://www.w3.org/2000/svg" width="1200" height="300" viewBox="0 0 1200 300" role="img">
<style>
.trace{stroke-dasharray:1700;animation:trace 2.8s cubic-bezier(.3,.8,.3,1)}
.sweep{animation:sweep 9s linear infinite}
@keyframes trace{from{stroke-dashoffset:1700}to{stroke-dashoffset:0}}
@keyframes sweep{from{transform:translateX(0)}to{transform:translateX(1088px)}}
@media (prefers-reduced-motion: reduce){*{animation:none!important}}
</style>

<defs>
<clipPath id="clip"><rect width="1200" height="300" rx="16"/></clipPath>
<linearGradient id="under" x1="0" y1="0" x2="0" y2="1">
<stop offset="0" stop-color="#ede6d5" stop-opacity=".22"/>
<stop offset="1" stop-color="#ede6d5" stop-opacity="0"/>
</linearGradient>
<linearGradient id="beam" x1="0" y1="0" x2="1" y2="0">
<stop offset="0" stop-color="#2f9c82" stop-opacity="0"/>
<stop offset="1" stop-color="#2f9c82" stop-opacity=".16"/>
</linearGradient>
<clipPath id="plot"><rect x="56" y="130" width="1088" height="120"/></clipPath>
<linearGradient id="falloff" x1="0" y1="0" x2="0" y2="1">
<stop offset="0" stop-color="#fff" stop-opacity="0"/>
<stop offset=".55" stop-color="#fff" stop-opacity="1"/>
<stop offset="1" stop-color="#fff" stop-opacity="1"/>
</linearGradient>
<mask id="beamMask"><rect x="56" y="130" width="1088" height="120" fill="url(#falloff)"/></mask>
</defs>

<rect width="1200" height="300" rx="16" fill="#121110"/>
<g clip-path="url(#clip)"><path d="M40 0V300M80 0V300M120 0V300M160 0V300M200 0V300M240 0V300M280 0V300M320 0V300M360 0V300M400 0V300M440 0V300M480 0V300M520 0V300M560 0V300M600 0V300M640 0V300M680 0V300M720 0V300M760 0V300M800 0V300M840 0V300M880 0V300M920 0V300M960 0V300M1000 0V300M1040 0V300M1080 0V300M1120 0V300M1160 0V300M0 40H1200M0 80H1200M0 120H1200M0 160H1200M0 200H1200M0 240H1200M0 280H1200" stroke="rgba(237,230,213,0.045)" stroke-width="1" fill="none"/></g>
<rect x="0.5" y="0.5" width="1199" height="299" rx="16" fill="none" stroke="rgba(237,230,213,0.10)"/>
<path d="M22 40L22 22L40 22" fill="none" stroke="rgba(237,230,213,0.22)" stroke-width="1.25"/><path d="M1178 40L1178 22L1160 22" fill="none" stroke="rgba(237,230,213,0.22)" stroke-width="1.25"/><path d="M22 260L22 278L40 278" fill="none" stroke="rgba(237,230,213,0.22)" stroke-width="1.25"/><path d="M1178 260L1178 278L1160 278" fill="none" stroke="rgba(237,230,213,0.22)" stroke-width="1.25"/>
<text x="56" y="96" font-family="ui-monospace,'SF Mono',SFMono-Regular,Menlo,Consolas,'Liberation Mono',monospace" font-size="44" fill="#ede6d5" font-weight="500">5,912</text>
<text x="56" y="124" font-family="ui-monospace,'SF Mono',SFMono-Regular,Menlo,Consolas,'Liberation Mono',monospace" font-size="13" fill="#8b8578" letter-spacing="2.4">CONTRIBUTIONS IN THE LAST YEAR</text>
<g clip-path="url(#plot)">
<path d="M56.00 250.00C56.25 250.00 58.45 250.00 58.94 250.00C59.43 250.00 61.39 250.00 61.88 250.00C62.37 250.00 64.33 250.00 64.82 250.00C65.31 250.00 67.27 250.00 67.76 250.00C68.25 250.00 70.21 250.00 70.70 250.00C71.19 250.00 73.15 250.00 73.64 250.00C74.13 250.00 76.09 250.00 76.58 250.00C77.07 250.00 79.03 250.00 79.52 250.00C80.01 250.00 81.97 250.00 82.46 250.00C82.95 250.00 84.92 250.00 85.41 250.00C85.90 250.00 87.86 250.00 88.35 250.00C88.84 250.00 90.80 250.00 91.29 250.00C91.78 250.00 93.74 250.00 94.23 250.00C94.72 250.00 96.68 250.00 97.17 250.00C97.66 250.00 99.62 250.00 100.11 250.00C100.60 250.00 102.56 250.00 103.05 250.00C103.54 250.00 105.50 250.00 105.99 250.00C106.48 250.00 108.44 250.00 108.93 250.00C109.42 250.00 111.38 250.00 111.87 250.00C112.36 250.00 114.32 250.00 114.81 250.00C115.30 250.00 117.26 250.00 117.75 250.00C118.24 250.00 120.20 250.00 120.69 250.00C121.18 250.00 123.14 250.00 123.63 250.00C124.12 250.00 126.08 250.00 126.57 250.00C127.06 250.00 129.02 250.00 129.51 250.00C130.00 250.00 131.96 250.00 132.45 250.00C132.94 250.00 134.90 250.00 135.39 250.00C135.88 250.00 137.85 250.01 138.34 250.00C138.83 249.99 140.79 249.87 141.28 249.86C141.77 249.84 143.73 249.86 144.22 249.86C144.71 249.86 146.67 249.86 147.16 249.86C147.65 249.86 149.61 249.86 150.10 249.86C150.59 249.86 152.55 249.86 153.04 249.86C153.53 249.86 155.49 249.90 155.98 249.86C156.47 249.81 158.43 249.31 158.92 249.28C159.41 249.24 161.37 249.41 161.86 249.42C162.35 249.43 164.31 249.42 164.80 249.42C165.29 249.42 167.25 249.42 167.74 249.42C168.23 249.42 170.19 249.42 170.68 249.42C171.17 249.42 173.13 249.42 173.62 249.42C174.11 249.42 176.07 249.43 176.56 249.42C177.05 249.41 179.01 249.29 179.50 249.28C179.99 249.27 181.95 249.28 182.44 249.28C182.93 249.28 184.89 249.28 185.38 249.28C185.87 249.28 187.83 249.28 188.32 249.28C188.81 249.28 190.77 249.28 191.26 249.28C191.75 249.28 193.72 249.28 194.21 249.28C194.70 249.28 196.66 249.22 197.15 249.28C197.64 249.34 199.60 249.95 200.09 250.00C200.58 250.05 202.54 249.89 203.03 249.86C203.52 249.82 205.48 249.59 205.97 249.57C206.46 249.54 208.42 249.57 208.91 249.57C209.40 249.57 211.36 249.57 211.85 249.57C212.34 249.57 214.30 249.57 214.79 249.57C215.28 249.57 217.24 249.62 217.73 249.57C218.22 249.52 220.18 249.04 220.67 248.99C221.16 248.94 223.12 248.97 223.61 248.99C224.10 249.01 226.06 249.25 226.55 249.28C227.04 249.30 229.00 249.28 229.49 249.28C229.98 249.28 231.94 249.28 232.43 249.28C232.92 249.28 234.88 249.28 235.37 249.28C235.86 249.28 237.82 249.23 238.31 249.28C238.80 249.33 240.76 249.80 241.25 249.86C241.74 249.92 243.70 249.99 244.19 250.00C244.68 250.01 246.65 250.00 247.14 250.00C247.63 250.00 249.59 250.00 250.08 250.00C250.57 250.00 252.53 250.00 253.02 250.00C253.51 250.00 255.47 250.12 255.96 250.00C256.45 249.88 258.41 248.68 258.90 248.56C259.39 248.44 261.35 248.56 261.84 248.56C262.33 248.56 264.29 248.56 264.78 248.56C265.27 248.56 267.23 248.56 267.72 248.56C268.21 248.56 270.17 248.56 270.66 248.56C271.15 248.56 273.11 248.56 273.60 248.56C274.09 248.56 276.05 248.44 276.54 248.56C277.03 248.68 278.99 249.98 279.48 250.00C279.97 250.02 281.93 249.46 282.42 248.85C282.91 248.23 284.87 243.16 285.36 242.64C285.85 242.12 287.81 242.64 288.30 242.64C288.79 242.64 290.75 242.64 291.24 242.64C291.73 242.64 293.69 242.64 294.18 242.64C294.67 242.64 296.63 242.64 297.12 242.64C297.61 242.64 299.57 242.54 300.06 242.64C300.55 242.74 302.52 243.18 303.01 243.80C303.50 244.41 305.46 249.48 305.95 250.00C306.44 250.52 308.40 250.00 308.89 250.00C309.38 250.00 311.34 250.00 311.83 250.00C312.32 250.00 314.28 250.00 314.77 250.00C315.26 250.00 317.22 250.00 317.71 250.00C318.20 250.00 320.16 250.00 320.65 250.00C321.14 250.00 323.10 250.00 323.59 250.00C324.08 250.00 326.04 250.00 326.53 250.00C327.02 250.00 328.98 250.00 329.47 250.00C329.96 250.00 331.92 250.00 332.41 250.00C332.90 250.00 334.86 250.00 335.35 250.00C335.84 250.00 337.80 250.00 338.29 250.00C338.78 250.00 340.74 250.00 341.23 250.00C341.72 250.00 343.68 250.00 344.17 250.00C344.66 250.00 346.62 250.00 347.11 250.00C347.60 250.00 349.56 250.00 350.05 250.00C350.54 250.00 352.50 250.00 352.99 250.00C353.48 250.00 355.45 250.00 355.94 250.00C356.43 250.00 358.39 250.00 358.88 250.00C359.37 250.00 361.33 250.00 361.82 250.00C362.31 250.00 364.27 250.00 364.76 250.00C365.25 250.00 367.21 250.00 367.70 250.00C368.19 250.00 370.15 250.00 370.64 250.00C371.13 250.00 373.09 250.01 373.58 250.00C374.07 249.99 376.03 249.88 376.52 249.86C377.01 249.83 378.97 249.72 379.46 249.71C379.95 249.70 381.91 249.71 382.40 249.71C382.89 249.71 384.85 249.71 385.34 249.71C385.83 249.71 387.79 249.71 388.28 249.71C388.77 249.71 390.73 249.71 391.22 249.71C391.71 249.71 393.67 249.70 394.16 249.71C394.65 249.72 396.61 249.83 397.10 249.86C397.59 249.88 399.55 249.99 400.04 250.00C400.53 250.01 402.49 250.00 402.98 250.00C403.47 250.00 405.43 250.00 405.92 250.00C406.41 250.00 408.37 250.00 408.86 250.00C409.35 250.00 411.32 250.00 411.81 250.00C412.30 250.00 414.26 250.00 414.75 250.00C415.24 250.00 417.20 250.00 417.69 250.00C418.18 250.00 420.14 250.00 420.63 250.00C421.12 250.00 423.08 250.00 423.57 250.00C424.06 250.00 426.02 250.00 426.51 250.00C427.00 250.00 428.96 250.05 429.45 250.00C429.94 249.95 431.90 249.57 432.39 249.42C432.88 249.28 434.84 248.36 435.33 248.27C435.82 248.17 437.78 248.27 438.27 248.27C438.76 248.27 440.72 248.27 441.21 248.27C441.70 248.27 443.66 248.27 444.15 248.27C444.64 248.27 446.60 248.27 447.09 248.27C447.58 248.27 449.54 248.22 450.03 248.27C450.52 248.32 452.48 248.70 452.97 248.85C453.46 248.99 455.42 249.90 455.91 250.00C456.40 250.10 458.36 250.00 458.85 250.00C459.34 250.00 461.30 250.00 461.79 250.00C462.28 250.00 464.25 250.00 464.74 250.00C465.23 250.00 467.19 250.00 467.68 250.00C468.17 250.00 470.13 250.00 470.62 250.00C471.11 250.00 473.07 250.00 473.56 250.00C474.05 250.00 476.01 250.00 476.50 250.00C476.99 250.00 478.95 250.02 479.44 250.00C479.93 249.98 481.89 249.74 482.38 249.71C482.87 249.69 484.83 249.71 485.32 249.71C485.81 249.71 487.77 249.71 488.26 249.71C488.75 249.71 490.71 249.71 491.20 249.71C491.69 249.71 493.65 249.71 494.14 249.71C494.63 249.71 496.59 249.71 497.08 249.71C497.57 249.71 499.53 249.69 500.02 249.71C500.51 249.74 502.47 249.98 502.96 250.00C503.45 250.02 505.41 250.00 505.90 250.00C506.39 250.00 508.35 250.00 508.84 250.00C509.33 250.00 511.29 250.00 511.78 250.00C512.27 250.00 514.23 250.00 514.72 250.00C515.21 250.00 517.17 250.10 517.66 250.00C518.15 249.90 520.12 248.94 520.61 248.85C521.10 248.75 523.06 248.86 523.55 248.85C524.04 248.83 526.00 248.71 526.49 248.70C526.98 248.69 528.94 248.70 529.43 248.70C529.92 248.70 531.88 248.70 532.37 248.70C532.86 248.70 534.82 248.70 535.31 248.70C535.80 248.70 537.76 248.62 538.25 248.70C538.74 248.79 540.70 249.63 541.19 249.71C541.68 249.80 543.64 249.70 544.13 249.71C544.62 249.72 546.58 249.84 547.07 249.86C547.56 249.87 549.52 249.86 550.01 249.86C550.50 249.86 552.46 249.86 552.95 249.86C553.44 249.86 555.40 249.86 555.89 249.86C556.38 249.86 558.34 249.84 558.83 249.86C559.32 249.87 561.28 250.10 561.77 250.00C562.26 249.90 564.22 248.87 564.71 248.70C565.20 248.53 567.16 248.04 567.65 247.98C568.14 247.92 570.10 247.99 570.59 247.98C571.08 247.97 573.05 247.85 573.54 247.84C574.03 247.82 575.99 247.84 576.48 247.84C576.97 247.84 578.93 247.84 579.42 247.84C579.91 247.84 581.87 247.73 582.36 247.84C582.85 247.94 584.81 248.97 585.30 249.13C585.79 249.30 587.75 249.80 588.24 249.86C588.73 249.92 590.69 249.84 591.18 249.86C591.67 249.87 593.63 249.99 594.12 250.00C594.61 250.01 596.57 250.00 597.06 250.00C597.55 250.00 599.51 250.01 600.00 250.00C600.49 249.99 602.45 250.06 602.94 249.86C603.43 249.65 605.39 247.87 605.88 247.55C606.37 247.22 608.33 246.13 608.82 245.96C609.31 245.79 611.27 245.59 611.76 245.53C612.25 245.47 614.21 246.18 614.70 245.24C615.19 244.30 617.15 235.88 617.64 234.27C618.13 232.66 620.09 227.68 620.58 225.90C621.07 224.12 623.03 214.13 623.52 212.91C624.01 211.70 625.97 211.60 626.46 211.33C626.95 211.05 628.92 209.70 629.41 209.60C629.90 209.49 631.86 210.26 632.35 210.03C632.84 209.80 634.80 206.64 635.29 206.85C635.78 207.07 637.74 211.45 638.23 212.63C638.72 213.80 640.68 219.20 641.17 221.00C641.66 222.79 643.62 232.82 644.11 234.13C644.60 235.44 646.56 236.23 647.05 236.72C647.54 237.22 649.50 239.84 649.99 240.04C650.48 240.25 652.44 239.32 652.93 239.18C653.42 239.03 655.38 238.22 655.87 238.31C656.36 238.41 658.32 240.16 658.81 240.33C659.30 240.50 661.26 240.33 661.75 240.33C662.24 240.33 664.20 240.28 664.69 240.33C665.18 240.38 667.14 241.26 667.63 240.91C668.12 240.56 670.08 237.51 670.57 236.15C671.06 234.79 673.02 225.79 673.51 224.60C674.00 223.41 675.96 222.62 676.45 221.86C676.94 221.10 678.90 216.98 679.39 215.51C679.88 214.05 681.85 205.89 682.34 204.26C682.83 202.62 684.79 197.79 685.28 195.89C685.77 193.99 687.73 183.36 688.22 181.46C688.71 179.56 690.67 172.75 691.16 173.09C691.65 173.42 693.61 183.87 694.10 185.50C694.59 187.12 696.55 191.19 697.04 192.57C697.53 193.95 699.49 200.36 699.98 202.09C700.47 203.82 702.43 211.71 702.92 213.35C703.41 214.98 705.37 219.76 705.86 221.72C706.35 223.68 708.31 234.64 708.80 236.87C709.29 239.09 711.25 247.67 711.74 248.41C712.23 249.16 714.19 246.03 714.68 245.82C715.17 245.60 717.13 245.84 717.62 245.82C718.11 245.79 720.07 245.55 720.56 245.53C721.05 245.50 723.01 245.53 723.50 245.53C723.99 245.53 725.95 245.54 726.44 245.53C726.93 245.51 728.89 245.30 729.38 245.38C729.87 245.47 731.83 247.17 732.32 246.54C732.81 245.90 734.77 238.47 735.26 237.73C735.75 237.00 737.72 237.89 738.21 237.73C738.70 237.58 740.66 236.34 741.15 235.86C741.64 235.38 743.60 232.38 744.09 231.96C744.58 231.54 746.54 230.99 747.03 230.81C747.52 230.63 749.48 229.88 749.97 229.80C750.46 229.71 752.42 228.86 752.91 229.80C753.40 230.74 755.36 240.12 755.85 241.05C756.34 241.99 758.30 240.87 758.79 241.05C759.28 241.23 761.24 242.71 761.73 243.22C762.22 243.72 764.18 246.69 764.67 247.11C765.16 247.53 767.12 248.08 767.61 248.27C768.10 248.46 770.06 249.29 770.55 249.42C771.04 249.56 773.00 249.81 773.49 249.86C773.98 249.90 775.94 249.99 776.43 250.00C776.92 250.01 778.88 250.00 779.37 250.00C779.86 250.00 781.82 250.06 782.31 250.00C782.80 249.94 784.76 249.70 785.25 249.28C785.74 248.86 787.70 245.97 788.19 244.95C788.68 243.93 790.65 238.44 791.14 237.01C791.63 235.58 793.59 228.57 794.08 227.78C794.57 226.98 796.53 227.51 797.02 227.49C797.51 227.47 799.47 227.49 799.96 227.49C800.45 227.49 802.41 227.43 802.90 227.49C803.39 227.55 805.35 227.79 805.84 228.21C806.33 228.63 808.29 231.52 808.78 232.54C809.27 233.56 811.23 239.05 811.72 240.48C812.21 241.91 814.17 248.92 814.66 249.71C815.15 250.51 817.11 249.98 817.60 250.00C818.09 250.02 820.05 250.00 820.54 250.00C821.03 250.00 822.99 250.00 823.48 250.00C823.97 250.00 825.93 250.00 826.42 250.00C826.91 250.00 828.87 250.13 829.36 250.00C829.85 249.87 831.81 248.77 832.30 248.41C832.79 248.05 834.75 245.98 835.24 245.67C835.73 245.36 837.69 245.41 838.18 244.66C838.67 243.92 840.63 237.43 841.12 236.72C841.61 236.01 843.57 236.45 844.06 236.15C844.55 235.85 846.52 233.96 847.01 233.12C847.50 232.28 849.46 226.60 849.95 226.05C850.44 225.49 852.40 226.23 852.89 226.48C853.38 226.73 855.34 228.78 855.83 229.08C856.32 229.38 858.28 229.34 858.77 230.09C859.26 230.83 861.22 237.33 861.71 238.02C862.20 238.72 864.16 238.31 864.65 238.46C865.14 238.60 867.10 239.31 867.59 239.75C868.08 240.20 870.04 243.59 870.53 243.80C871.02 244.00 872.98 242.35 873.47 242.21C873.96 242.06 875.92 242.09 876.41 242.06C876.90 242.04 878.86 241.94 879.35 241.92C879.84 241.90 881.80 241.80 882.29 241.77C882.78 241.75 884.74 241.82 885.23 241.63C885.72 241.44 887.68 239.47 888.17 239.47C888.66 239.47 890.62 241.85 891.11 241.63C891.60 241.41 893.56 237.30 894.05 236.87C894.54 236.44 896.50 237.04 896.99 236.44C897.48 235.83 899.45 230.44 899.94 229.65C900.43 228.87 902.39 227.77 902.88 227.06C903.37 226.35 905.33 221.51 905.82 221.14C906.31 220.77 908.27 222.43 908.76 222.58C909.25 222.74 911.21 222.68 911.70 223.02C912.19 223.35 914.15 226.46 914.64 226.62C915.13 226.79 917.09 224.74 917.58 225.04C918.07 225.34 920.03 229.67 920.52 230.23C921.01 230.80 922.97 231.36 923.46 231.82C923.95 232.28 925.91 235.38 926.40 235.71C926.89 236.05 928.85 235.82 929.34 235.86C929.83 235.89 931.79 236.03 932.28 236.15C932.77 236.27 934.73 237.40 935.22 237.30C935.71 237.21 937.67 235.37 938.16 234.99C938.65 234.62 940.61 233.27 941.10 232.83C941.59 232.38 943.55 229.91 944.04 229.65C944.53 229.40 946.49 229.63 946.98 229.80C947.47 229.97 949.43 231.52 949.92 231.67C950.41 231.83 952.37 231.75 952.86 231.67C953.35 231.60 955.32 230.69 955.81 230.81C956.30 230.93 958.26 232.86 958.75 233.12C959.24 233.37 961.20 233.56 961.69 233.84C962.18 234.11 964.14 236.06 964.63 236.44C965.12 236.81 967.08 238.12 967.57 238.31C968.06 238.50 970.02 238.71 970.51 238.74C971.00 238.78 972.96 238.59 973.45 238.74C973.94 238.90 975.90 240.50 976.39 240.62C976.88 240.74 978.84 240.36 979.33 240.19C979.82 240.02 981.78 238.94 982.27 238.60C982.76 238.26 984.72 236.68 985.21 236.15C985.70 235.62 987.66 232.58 988.15 232.25C988.64 231.93 990.60 233.93 991.09 232.25C991.58 230.57 993.54 214.25 994.03 212.05C994.52 209.85 996.48 207.44 996.97 205.84C997.46 204.24 999.42 194.64 999.91 192.86C1000.40 191.08 1002.36 185.44 1002.85 184.49C1003.34 183.54 1005.30 181.52 1005.79 181.46C1006.28 181.40 1008.25 183.74 1008.74 183.77C1009.23 183.79 1011.19 180.54 1011.68 181.75C1012.17 182.95 1014.13 198.88 1014.62 198.20C1015.11 197.51 1017.07 176.05 1017.56 173.52C1018.05 171.00 1020.01 168.19 1020.50 167.89C1020.99 167.59 1022.95 170.62 1023.44 169.91C1023.93 169.20 1025.89 161.04 1026.38 159.38C1026.87 157.72 1028.83 150.78 1029.32 150.00C1029.81 149.22 1031.77 150.00 1032.26 150.00C1032.75 150.00 1034.71 150.00 1035.20 150.00C1035.69 150.00 1037.65 150.00 1038.14 150.00C1038.63 150.00 1040.59 150.00 1041.08 150.00C1041.57 150.00 1043.53 150.00 1044.02 150.00C1044.51 150.00 1046.47 150.00 1046.96 150.00C1047.45 150.00 1049.41 150.00 1049.90 150.00C1050.39 150.00 1052.35 147.07 1052.84 150.00C1053.33 152.93 1055.29 181.34 1055.78 185.21C1056.27 189.08 1058.23 195.32 1058.72 196.46C1059.21 197.61 1061.17 198.68 1061.66 198.92C1062.15 199.16 1064.12 198.76 1064.61 199.35C1065.10 199.94 1067.06 204.62 1067.55 205.99C1068.04 207.36 1070.00 216.09 1070.49 215.80C1070.98 215.51 1072.94 203.76 1073.43 202.53C1073.92 201.29 1075.88 200.63 1076.37 200.94C1076.86 201.25 1078.82 205.75 1079.31 206.28C1079.80 206.81 1081.76 205.95 1082.25 207.29C1082.74 208.62 1084.70 220.60 1085.19 222.29C1085.68 223.99 1087.64 227.03 1088.13 227.63C1088.62 228.23 1090.58 229.63 1091.07 229.51C1091.56 229.39 1093.52 230.17 1094.01 226.19C1094.50 222.21 1096.46 185.83 1096.95 181.75C1097.44 177.66 1099.40 178.20 1099.89 177.13C1100.38 176.06 1102.34 169.59 1102.83 168.90C1103.32 168.22 1105.28 170.48 1105.77 168.90C1106.26 167.33 1108.22 151.58 1108.71 150.00C1109.20 148.42 1111.16 150.00 1111.65 150.00C1112.14 150.00 1114.10 148.44 1114.59 150.00C1115.08 151.56 1117.05 166.90 1117.54 168.76C1118.03 170.62 1119.99 172.23 1120.48 172.37C1120.97 172.50 1122.93 171.51 1123.42 170.35C1123.91 169.18 1125.87 157.79 1126.36 158.37C1126.85 158.95 1128.81 173.57 1129.30 177.27C1129.79 180.98 1131.75 199.70 1132.24 202.81C1132.73 205.93 1134.69 213.10 1135.18 214.65C1135.67 216.19 1137.63 221.18 1138.12 221.38C1138.61 221.58 1140.57 216.60 1141.06 217.07C1141.55 217.54 1143.75 226.19 1144.00 227.02L1144 250L56 250Z" fill="url(#under)"/>
<path d="M56.00 250.00C56.25 250.00 58.45 250.00 58.94 250.00C59.43 250.00 61.39 250.00 61.88 250.00C62.37 250.00 64.33 250.00 64.82 250.00C65.31 250.00 67.27 250.00 67.76 250.00C68.25 250.00 70.21 250.00 70.70 250.00C71.19 250.00 73.15 250.00 73.64 250.00C74.13 250.00 76.09 250.00 76.58 250.00C77.07 250.00 79.03 250.00 79.52 250.00C80.01 250.00 81.97 250.00 82.46 250.00C82.95 250.00 84.92 250.00 85.41 250.00C85.90 250.00 87.86 250.00 88.35 250.00C88.84 250.00 90.80 250.00 91.29 250.00C91.78 250.00 93.74 250.00 94.23 250.00C94.72 250.00 96.68 250.00 97.17 250.00C97.66 250.00 99.62 250.00 100.11 250.00C100.60 250.00 102.56 250.00 103.05 250.00C103.54 250.00 105.50 250.00 105.99 250.00C106.48 250.00 108.44 250.00 108.93 250.00C109.42 250.00 111.38 250.00 111.87 250.00C112.36 250.00 114.32 250.00 114.81 250.00C115.30 250.00 117.26 250.00 117.75 250.00C118.24 250.00 120.20 250.00 120.69 250.00C121.18 250.00 123.14 250.00 123.63 250.00C124.12 250.00 126.08 250.00 126.57 250.00C127.06 250.00 129.02 250.00 129.51 250.00C130.00 250.00 131.96 250.00 132.45 250.00C132.94 250.00 134.90 250.00 135.39 250.00C135.88 250.00 137.85 250.01 138.34 250.00C138.83 249.99 140.79 249.87 141.28 249.86C141.77 249.84 143.73 249.86 144.22 249.86C144.71 249.86 146.67 249.86 147.16 249.86C147.65 249.86 149.61 249.86 150.10 249.86C150.59 249.86 152.55 249.86 153.04 249.86C153.53 249.86 155.49 249.90 155.98 249.86C156.47 249.81 158.43 249.31 158.92 249.28C159.41 249.24 161.37 249.41 161.86 249.42C162.35 249.43 164.31 249.42 164.80 249.42C165.29 249.42 167.25 249.42 167.74 249.42C168.23 249.42 170.19 249.42 170.68 249.42C171.17 249.42 173.13 249.42 173.62 249.42C174.11 249.42 176.07 249.43 176.56 249.42C177.05 249.41 179.01 249.29 179.50 249.28C179.99 249.27 181.95 249.28 182.44 249.28C182.93 249.28 184.89 249.28 185.38 249.28C185.87 249.28 187.83 249.28 188.32 249.28C188.81 249.28 190.77 249.28 191.26 249.28C191.75 249.28 193.72 249.28 194.21 249.28C194.70 249.28 196.66 249.22 197.15 249.28C197.64 249.34 199.60 249.95 200.09 250.00C200.58 250.05 202.54 249.89 203.03 249.86C203.52 249.82 205.48 249.59 205.97 249.57C206.46 249.54 208.42 249.57 208.91 249.57C209.40 249.57 211.36 249.57 211.85 249.57C212.34 249.57 214.30 249.57 214.79 249.57C215.28 249.57 217.24 249.62 217.73 249.57C218.22 249.52 220.18 249.04 220.67 248.99C221.16 248.94 223.12 248.97 223.61 248.99C224.10 249.01 226.06 249.25 226.55 249.28C227.04 249.30 229.00 249.28 229.49 249.28C229.98 249.28 231.94 249.28 232.43 249.28C232.92 249.28 234.88 249.28 235.37 249.28C235.86 249.28 237.82 249.23 238.31 249.28C238.80 249.33 240.76 249.80 241.25 249.86C241.74 249.92 243.70 249.99 244.19 250.00C244.68 250.01 246.65 250.00 247.14 250.00C247.63 250.00 249.59 250.00 250.08 250.00C250.57 250.00 252.53 250.00 253.02 250.00C253.51 250.00 255.47 250.12 255.96 250.00C256.45 249.88 258.41 248.68 258.90 248.56C259.39 248.44 261.35 248.56 261.84 248.56C262.33 248.56 264.29 248.56 264.78 248.56C265.27 248.56 267.23 248.56 267.72 248.56C268.21 248.56 270.17 248.56 270.66 248.56C271.15 248.56 273.11 248.56 273.60 248.56C274.09 248.56 276.05 248.44 276.54 248.56C277.03 248.68 278.99 249.98 279.48 250.00C279.97 250.02 281.93 249.46 282.42 248.85C282.91 248.23 284.87 243.16 285.36 242.64C285.85 242.12 287.81 242.64 288.30 242.64C288.79 242.64 290.75 242.64 291.24 242.64C291.73 242.64 293.69 242.64 294.18 242.64C294.67 242.64 296.63 242.64 297.12 242.64C297.61 242.64 299.57 242.54 300.06 242.64C300.55 242.74 302.52 243.18 303.01 243.80C303.50 244.41 305.46 249.48 305.95 250.00C306.44 250.52 308.40 250.00 308.89 250.00C309.38 250.00 311.34 250.00 311.83 250.00C312.32 250.00 314.28 250.00 314.77 250.00C315.26 250.00 317.22 250.00 317.71 250.00C318.20 250.00 320.16 250.00 320.65 250.00C321.14 250.00 323.10 250.00 323.59 250.00C324.08 250.00 326.04 250.00 326.53 250.00C327.02 250.00 328.98 250.00 329.47 250.00C329.96 250.00 331.92 250.00 332.41 250.00C332.90 250.00 334.86 250.00 335.35 250.00C335.84 250.00 337.80 250.00 338.29 250.00C338.78 250.00 340.74 250.00 341.23 250.00C341.72 250.00 343.68 250.00 344.17 250.00C344.66 250.00 346.62 250.00 347.11 250.00C347.60 250.00 349.56 250.00 350.05 250.00C350.54 250.00 352.50 250.00 352.99 250.00C353.48 250.00 355.45 250.00 355.94 250.00C356.43 250.00 358.39 250.00 358.88 250.00C359.37 250.00 361.33 250.00 361.82 250.00C362.31 250.00 364.27 250.00 364.76 250.00C365.25 250.00 367.21 250.00 367.70 250.00C368.19 250.00 370.15 250.00 370.64 250.00C371.13 250.00 373.09 250.01 373.58 250.00C374.07 249.99 376.03 249.88 376.52 249.86C377.01 249.83 378.97 249.72 379.46 249.71C379.95 249.70 381.91 249.71 382.40 249.71C382.89 249.71 384.85 249.71 385.34 249.71C385.83 249.71 387.79 249.71 388.28 249.71C388.77 249.71 390.73 249.71 391.22 249.71C391.71 249.71 393.67 249.70 394.16 249.71C394.65 249.72 396.61 249.83 397.10 249.86C397.59 249.88 399.55 249.99 400.04 250.00C400.53 250.01 402.49 250.00 402.98 250.00C403.47 250.00 405.43 250.00 405.92 250.00C406.41 250.00 408.37 250.00 408.86 250.00C409.35 250.00 411.32 250.00 411.81 250.00C412.30 250.00 414.26 250.00 414.75 250.00C415.24 250.00 417.20 250.00 417.69 250.00C418.18 250.00 420.14 250.00 420.63 250.00C421.12 250.00 423.08 250.00 423.57 250.00C424.06 250.00 426.02 250.00 426.51 250.00C427.00 250.00 428.96 250.05 429.45 250.00C429.94 249.95 431.90 249.57 432.39 249.42C432.88 249.28 434.84 248.36 435.33 248.27C435.82 248.17 437.78 248.27 438.27 248.27C438.76 248.27 440.72 248.27 441.21 248.27C441.70 248.27 443.66 248.27 444.15 248.27C444.64 248.27 446.60 248.27 447.09 248.27C447.58 248.27 449.54 248.22 450.03 248.27C450.52 248.32 452.48 248.70 452.97 248.85C453.46 248.99 455.42 249.90 455.91 250.00C456.40 250.10 458.36 250.00 458.85 250.00C459.34 250.00 461.30 250.00 461.79 250.00C462.28 250.00 464.25 250.00 464.74 250.00C465.23 250.00 467.19 250.00 467.68 250.00C468.17 250.00 470.13 250.00 470.62 250.00C471.11 250.00 473.07 250.00 473.56 250.00C474.05 250.00 476.01 250.00 476.50 250.00C476.99 250.00 478.95 250.02 479.44 250.00C479.93 249.98 481.89 249.74 482.38 249.71C482.87 249.69 484.83 249.71 485.32 249.71C485.81 249.71 487.77 249.71 488.26 249.71C488.75 249.71 490.71 249.71 491.20 249.71C491.69 249.71 493.65 249.71 494.14 249.71C494.63 249.71 496.59 249.71 497.08 249.71C497.57 249.71 499.53 249.69 500.02 249.71C500.51 249.74 502.47 249.98 502.96 250.00C503.45 250.02 505.41 250.00 505.90 250.00C506.39 250.00 508.35 250.00 508.84 250.00C509.33 250.00 511.29 250.00 511.78 250.00C512.27 250.00 514.23 250.00 514.72 250.00C515.21 250.00 517.17 250.10 517.66 250.00C518.15 249.90 520.12 248.94 520.61 248.85C521.10 248.75 523.06 248.86 523.55 248.85C524.04 248.83 526.00 248.71 526.49 248.70C526.98 248.69 528.94 248.70 529.43 248.70C529.92 248.70 531.88 248.70 532.37 248.70C532.86 248.70 534.82 248.70 535.31 248.70C535.80 248.70 537.76 248.62 538.25 248.70C538.74 248.79 540.70 249.63 541.19 249.71C541.68 249.80 543.64 249.70 544.13 249.71C544.62 249.72 546.58 249.84 547.07 249.86C547.56 249.87 549.52 249.86 550.01 249.86C550.50 249.86 552.46 249.86 552.95 249.86C553.44 249.86 555.40 249.86 555.89 249.86C556.38 249.86 558.34 249.84 558.83 249.86C559.32 249.87 561.28 250.10 561.77 250.00C562.26 249.90 564.22 248.87 564.71 248.70C565.20 248.53 567.16 248.04 567.65 247.98C568.14 247.92 570.10 247.99 570.59 247.98C571.08 247.97 573.05 247.85 573.54 247.84C574.03 247.82 575.99 247.84 576.48 247.84C576.97 247.84 578.93 247.84 579.42 247.84C579.91 247.84 581.87 247.73 582.36 247.84C582.85 247.94 584.81 248.97 585.30 249.13C585.79 249.30 587.75 249.80 588.24 249.86C588.73 249.92 590.69 249.84 591.18 249.86C591.67 249.87 593.63 249.99 594.12 250.00C594.61 250.01 596.57 250.00 597.06 250.00C597.55 250.00 599.51 250.01 600.00 250.00C600.49 249.99 602.45 250.06 602.94 249.86C603.43 249.65 605.39 247.87 605.88 247.55C606.37 247.22 608.33 246.13 608.82 245.96C609.31 245.79 611.27 245.59 611.76 245.53C612.25 245.47 614.21 246.18 614.70 245.24C615.19 244.30 617.15 235.88 617.64 234.27C618.13 232.66 620.09 227.68 620.58 225.90C621.07 224.12 623.03 214.13 623.52 212.91C624.01 211.70 625.97 211.60 626.46 211.33C626.95 211.05 628.92 209.70 629.41 209.60C629.90 209.49 631.86 210.26 632.35 210.03C632.84 209.80 634.80 206.64 635.29 206.85C635.78 207.07 637.74 211.45 638.23 212.63C638.72 213.80 640.68 219.20 641.17 221.00C641.66 222.79 643.62 232.82 644.11 234.13C644.60 235.44 646.56 236.23 647.05 236.72C647.54 237.22 649.50 239.84 649.99 240.04C650.48 240.25 652.44 239.32 652.93 239.18C653.42 239.03 655.38 238.22 655.87 238.31C656.36 238.41 658.32 240.16 658.81 240.33C659.30 240.50 661.26 240.33 661.75 240.33C662.24 240.33 664.20 240.28 664.69 240.33C665.18 240.38 667.14 241.26 667.63 240.91C668.12 240.56 670.08 237.51 670.57 236.15C671.06 234.79 673.02 225.79 673.51 224.60C674.00 223.41 675.96 222.62 676.45 221.86C676.94 221.10 678.90 216.98 679.39 215.51C679.88 214.05 681.85 205.89 682.34 204.26C682.83 202.62 684.79 197.79 685.28 195.89C685.77 193.99 687.73 183.36 688.22 181.46C688.71 179.56 690.67 172.75 691.16 173.09C691.65 173.42 693.61 183.87 694.10 185.50C694.59 187.12 696.55 191.19 697.04 192.57C697.53 193.95 699.49 200.36 699.98 202.09C700.47 203.82 702.43 211.71 702.92 213.35C703.41 214.98 705.37 219.76 705.86 221.72C706.35 223.68 708.31 234.64 708.80 236.87C709.29 239.09 711.25 247.67 711.74 248.41C712.23 249.16 714.19 246.03 714.68 245.82C715.17 245.60 717.13 245.84 717.62 245.82C718.11 245.79 720.07 245.55 720.56 245.53C721.05 245.50 723.01 245.53 723.50 245.53C723.99 245.53 725.95 245.54 726.44 245.53C726.93 245.51 728.89 245.30 729.38 245.38C729.87 245.47 731.83 247.17 732.32 246.54C732.81 245.90 734.77 238.47 735.26 237.73C735.75 237.00 737.72 237.89 738.21 237.73C738.70 237.58 740.66 236.34 741.15 235.86C741.64 235.38 743.60 232.38 744.09 231.96C744.58 231.54 746.54 230.99 747.03 230.81C747.52 230.63 749.48 229.88 749.97 229.80C750.46 229.71 752.42 228.86 752.91 229.80C753.40 230.74 755.36 240.12 755.85 241.05C756.34 241.99 758.30 240.87 758.79 241.05C759.28 241.23 761.24 242.71 761.73 243.22C762.22 243.72 764.18 246.69 764.67 247.11C765.16 247.53 767.12 248.08 767.61 248.27C768.10 248.46 770.06 249.29 770.55 249.42C771.04 249.56 773.00 249.81 773.49 249.86C773.98 249.90 775.94 249.99 776.43 250.00C776.92 250.01 778.88 250.00 779.37 250.00C779.86 250.00 781.82 250.06 782.31 250.00C782.80 249.94 784.76 249.70 785.25 249.28C785.74 248.86 787.70 245.97 788.19 244.95C788.68 243.93 790.65 238.44 791.14 237.01C791.63 235.58 793.59 228.57 794.08 227.78C794.57 226.98 796.53 227.51 797.02 227.49C797.51 227.47 799.47 227.49 799.96 227.49C800.45 227.49 802.41 227.43 802.90 227.49C803.39 227.55 805.35 227.79 805.84 228.21C806.33 228.63 808.29 231.52 808.78 232.54C809.27 233.56 811.23 239.05 811.72 240.48C812.21 241.91 814.17 248.92 814.66 249.71C815.15 250.51 817.11 249.98 817.60 250.00C818.09 250.02 820.05 250.00 820.54 250.00C821.03 250.00 822.99 250.00 823.48 250.00C823.97 250.00 825.93 250.00 826.42 250.00C826.91 250.00 828.87 250.13 829.36 250.00C829.85 249.87 831.81 248.77 832.30 248.41C832.79 248.05 834.75 245.98 835.24 245.67C835.73 245.36 837.69 245.41 838.18 244.66C838.67 243.92 840.63 237.43 841.12 236.72C841.61 236.01 843.57 236.45 844.06 236.15C844.55 235.85 846.52 233.96 847.01 233.12C847.50 232.28 849.46 226.60 849.95 226.05C850.44 225.49 852.40 226.23 852.89 226.48C853.38 226.73 855.34 228.78 855.83 229.08C856.32 229.38 858.28 229.34 858.77 230.09C859.26 230.83 861.22 237.33 861.71 238.02C862.20 238.72 864.16 238.31 864.65 238.46C865.14 238.60 867.10 239.31 867.59 239.75C868.08 240.20 870.04 243.59 870.53 243.80C871.02 244.00 872.98 242.35 873.47 242.21C873.96 242.06 875.92 242.09 876.41 242.06C876.90 242.04 878.86 241.94 879.35 241.92C879.84 241.90 881.80 241.80 882.29 241.77C882.78 241.75 884.74 241.82 885.23 241.63C885.72 241.44 887.68 239.47 888.17 239.47C888.66 239.47 890.62 241.85 891.11 241.63C891.60 241.41 893.56 237.30 894.05 236.87C894.54 236.44 896.50 237.04 896.99 236.44C897.48 235.83 899.45 230.44 899.94 229.65C900.43 228.87 902.39 227.77 902.88 227.06C903.37 226.35 905.33 221.51 905.82 221.14C906.31 220.77 908.27 222.43 908.76 222.58C909.25 222.74 911.21 222.68 911.70 223.02C912.19 223.35 914.15 226.46 914.64 226.62C915.13 226.79 917.09 224.74 917.58 225.04C918.07 225.34 920.03 229.67 920.52 230.23C921.01 230.80 922.97 231.36 923.46 231.82C923.95 232.28 925.91 235.38 926.40 235.71C926.89 236.05 928.85 235.82 929.34 235.86C929.83 235.89 931.79 236.03 932.28 236.15C932.77 236.27 934.73 237.40 935.22 237.30C935.71 237.21 937.67 235.37 938.16 234.99C938.65 234.62 940.61 233.27 941.10 232.83C941.59 232.38 943.55 229.91 944.04 229.65C944.53 229.40 946.49 229.63 946.98 229.80C947.47 229.97 949.43 231.52 949.92 231.67C950.41 231.83 952.37 231.75 952.86 231.67C953.35 231.60 955.32 230.69 955.81 230.81C956.30 230.93 958.26 232.86 958.75 233.12C959.24 233.37 961.20 233.56 961.69 233.84C962.18 234.11 964.14 236.06 964.63 236.44C965.12 236.81 967.08 238.12 967.57 238.31C968.06 238.50 970.02 238.71 970.51 238.74C971.00 238.78 972.96 238.59 973.45 238.74C973.94 238.90 975.90 240.50 976.39 240.62C976.88 240.74 978.84 240.36 979.33 240.19C979.82 240.02 981.78 238.94 982.27 238.60C982.76 238.26 984.72 236.68 985.21 236.15C985.70 235.62 987.66 232.58 988.15 232.25C988.64 231.93 990.60 233.93 991.09 232.25C991.58 230.57 993.54 214.25 994.03 212.05C994.52 209.85 996.48 207.44 996.97 205.84C997.46 204.24 999.42 194.64 999.91 192.86C1000.40 191.08 1002.36 185.44 1002.85 184.49C1003.34 183.54 1005.30 181.52 1005.79 181.46C1006.28 181.40 1008.25 183.74 1008.74 183.77C1009.23 183.79 1011.19 180.54 1011.68 181.75C1012.17 182.95 1014.13 198.88 1014.62 198.20C1015.11 197.51 1017.07 176.05 1017.56 173.52C1018.05 171.00 1020.01 168.19 1020.50 167.89C1020.99 167.59 1022.95 170.62 1023.44 169.91C1023.93 169.20 1025.89 161.04 1026.38 159.38C1026.87 157.72 1028.83 150.78 1029.32 150.00C1029.81 149.22 1031.77 150.00 1032.26 150.00C1032.75 150.00 1034.71 150.00 1035.20 150.00C1035.69 150.00 1037.65 150.00 1038.14 150.00C1038.63 150.00 1040.59 150.00 1041.08 150.00C1041.57 150.00 1043.53 150.00 1044.02 150.00C1044.51 150.00 1046.47 150.00 1046.96 150.00C1047.45 150.00 1049.41 150.00 1049.90 150.00C1050.39 150.00 1052.35 147.07 1052.84 150.00C1053.33 152.93 1055.29 181.34 1055.78 185.21C1056.27 189.08 1058.23 195.32 1058.72 196.46C1059.21 197.61 1061.17 198.68 1061.66 198.92C1062.15 199.16 1064.12 198.76 1064.61 199.35C1065.10 199.94 1067.06 204.62 1067.55 205.99C1068.04 207.36 1070.00 216.09 1070.49 215.80C1070.98 215.51 1072.94 203.76 1073.43 202.53C1073.92 201.29 1075.88 200.63 1076.37 200.94C1076.86 201.25 1078.82 205.75 1079.31 206.28C1079.80 206.81 1081.76 205.95 1082.25 207.29C1082.74 208.62 1084.70 220.60 1085.19 222.29C1085.68 223.99 1087.64 227.03 1088.13 227.63C1088.62 228.23 1090.58 229.63 1091.07 229.51C1091.56 229.39 1093.52 230.17 1094.01 226.19C1094.50 222.21 1096.46 185.83 1096.95 181.75C1097.44 177.66 1099.40 178.20 1099.89 177.13C1100.38 176.06 1102.34 169.59 1102.83 168.90C1103.32 168.22 1105.28 170.48 1105.77 168.90C1106.26 167.33 1108.22 151.58 1108.71 150.00C1109.20 148.42 1111.16 150.00 1111.65 150.00C1112.14 150.00 1114.10 148.44 1114.59 150.00C1115.08 151.56 1117.05 166.90 1117.54 168.76C1118.03 170.62 1119.99 172.23 1120.48 172.37C1120.97 172.50 1122.93 171.51 1123.42 170.35C1123.91 169.18 1125.87 157.79 1126.36 158.37C1126.85 158.95 1128.81 173.57 1129.30 177.27C1129.79 180.98 1131.75 199.70 1132.24 202.81C1132.73 205.93 1134.69 213.10 1135.18 214.65C1135.67 216.19 1137.63 221.18 1138.12 221.38C1138.61 221.58 1140.57 216.60 1141.06 217.07C1141.55 217.54 1143.75 226.19 1144.00 227.02" fill="none" stroke="#ede6d5" stroke-width="2" stroke-linecap="round" stroke-linejoin="round" class="trace"/>
<g class="sweep" mask="url(#beamMask)"><rect x="-64" y="130" width="120" height="120" fill="url(#beam)"/>
<line x1="56" y1="130" x2="56" y2="250" stroke="#2f9c82" stroke-width="1.5" opacity=".6"/></g>
</g>
<line x1="56" y1="250" x2="1144" y2="250" stroke="rgba(237,230,213,0.22)" stroke-width="1" />
<g>
<circle cx="1105.8" cy="168.9" r="3.5" fill="#d9483c"/>
<circle cx="1105.8" cy="168.9" r="8" fill="none" stroke="#d9483c" stroke-opacity=".45"/>
<text x="1105.7729729729729" y="150.9033189033189" font-family="ui-monospace,'SF Mono',SFMono-Regular,Menlo,Consolas,'Liberation Mono',monospace" font-size="12" fill="#a9a293" text-anchor="middle">325</text>
</g>
<line x1="56" y1="250" x2="56" y2="257" stroke="rgba(237,230,213,0.10)" stroke-width="1" />
<text x="56" y="276" font-family="ui-monospace,'SF Mono',SFMono-Regular,Menlo,Consolas,'Liberation Mono',monospace" font-size="12" fill="#8b8578" text-anchor="middle">S</text><line x1="176.56216216216217" y1="250" x2="176.56216216216217" y2="257" stroke="rgba(237,230,213,0.10)" stroke-width="1" />
<text x="176.56216216216217" y="276" font-family="ui-monospace,'SF Mono',SFMono-Regular,Menlo,Consolas,'Liberation Mono',monospace" font-size="12" fill="#8b8578" text-anchor="middle">N</text><line x1="264.7783783783784" y1="250" x2="264.7783783783784" y2="257" stroke="rgba(237,230,213,0.10)" stroke-width="1" />
<text x="264.7783783783784" y="276" font-family="ui-monospace,'SF Mono',SFMono-Regular,Menlo,Consolas,'Liberation Mono',monospace" font-size="12" fill="#8b8578" text-anchor="middle">D</text><line x1="355.9351351351351" y1="250" x2="355.9351351351351" y2="257" stroke="rgba(237,230,213,0.10)" stroke-width="1" />
<text x="355.9351351351351" y="276" font-family="ui-monospace,'SF Mono',SFMono-Regular,Menlo,Consolas,'Liberation Mono',monospace" font-size="12" fill="#8b8578" text-anchor="middle">J</text><line x1="447.0918918918919" y1="250" x2="447.0918918918919" y2="257" stroke="rgba(237,230,213,0.10)" stroke-width="1" />
<text x="447.0918918918919" y="276" font-family="ui-monospace,'SF Mono',SFMono-Regular,Menlo,Consolas,'Liberation Mono',monospace" font-size="12" fill="#8b8578" text-anchor="middle">F</text><line x1="529.427027027027" y1="250" x2="529.427027027027" y2="257" stroke="rgba(237,230,213,0.10)" stroke-width="1" />
<text x="529.427027027027" y="276" font-family="ui-monospace,'SF Mono',SFMono-Regular,Menlo,Consolas,'Liberation Mono',monospace" font-size="12" fill="#8b8578" text-anchor="middle">M</text><line x1="620.5837837837838" y1="250" x2="620.5837837837838" y2="257" stroke="rgba(237,230,213,0.10)" stroke-width="1" />
<text x="620.5837837837838" y="276" font-family="ui-monospace,'SF Mono',SFMono-Regular,Menlo,Consolas,'Liberation Mono',monospace" font-size="12" fill="#8b8578" text-anchor="middle">A</text><line x1="708.8" y1="250" x2="708.8" y2="257" stroke="rgba(237,230,213,0.10)" stroke-width="1" />
<text x="708.8" y="276" font-family="ui-monospace,'SF Mono',SFMono-Regular,Menlo,Consolas,'Liberation Mono',monospace" font-size="12" fill="#8b8578" text-anchor="middle">M</text><line x1="799.9567567567567" y1="250" x2="799.9567567567567" y2="257" stroke="rgba(237,230,213,0.10)" stroke-width="1" />
<text x="799.9567567567567" y="276" font-family="ui-monospace,'SF Mono',SFMono-Regular,Menlo,Consolas,'Liberation Mono',monospace" font-size="12" fill="#8b8578" text-anchor="middle">J</text><line x1="888.172972972973" y1="250" x2="888.172972972973" y2="257" stroke="rgba(237,230,213,0.10)" stroke-width="1" />
<text x="888.172972972973" y="276" font-family="ui-monospace,'SF Mono',SFMono-Regular,Menlo,Consolas,'Liberation Mono',monospace" font-size="12" fill="#8b8578" text-anchor="middle">J</text><line x1="979.3297297297297" y1="250" x2="979.3297297297297" y2="257" stroke="rgba(237,230,213,0.10)" stroke-width="1" />
<text x="979.3297297297297" y="276" font-family="ui-monospace,'SF Mono',SFMono-Regular,Menlo,Consolas,'Liberation Mono',monospace" font-size="12" fill="#8b8578" text-anchor="middle">A</text><line x1="1070.4864864864865" y1="250" x2="1070.4864864864865" y2="257" stroke="rgba(237,230,213,0.10)" stroke-width="1" />
<text x="1070.4864864864865" y="276" font-family="ui-monospace,'SF Mono',SFMono-Regular,Menlo,Consolas,'Liberation Mono',monospace" font-size="12" fill="#8b8578" text-anchor="middle">S</text>
</svg>