<svg xmlns="http://www.w3.org/2000/svg" width="1200" height="300" viewBox="0 0 1200 300" role="img">
<style>
.trace{stroke-dasharray:1732;animation:trace 2.8s cubic-bezier(.3,.8,.3,1)}
.sweep{animation:sweep 9s linear infinite}
@keyframes trace{from{stroke-dashoffset:1732}to{stroke-dashoffset:0}}
@keyframes sweep{from{transform:translateX(0)}to{transform:translateX(1088px)}}
@media (prefers-reduced-motion: reduce){*{animation:none!important}}
</style>

<defs>
<clipPath id="clip"><rect width="1200" height="300" rx="16"/></clipPath>
<linearGradient id="under" x1="0" y1="0" x2="0" y2="1">
<stop offset="0" stop-color="#ede6d5" stop-opacity=".22"/>
<stop offset="1" stop-color="#ede6d5" stop-opacity="0"/>
</linearGradient>
<linearGradient id="beam" x1="0" y1="0" x2="1" y2="0">
<stop offset="0" stop-color="#2f9c82" stop-opacity="0"/>
<stop offset="1" stop-color="#2f9c82" stop-opacity=".16"/>
</linearGradient>
<clipPath id="plot"><rect x="56" y="130" width="1088" height="120"/></clipPath>
<linearGradient id="falloff" x1="0" y1="0" x2="0" y2="1">
<stop offset="0" stop-color="#fff" stop-opacity="0"/>
<stop offset=".55" stop-color="#fff" stop-opacity="1"/>
<stop offset="1" stop-color="#fff" stop-opacity="1"/>
</linearGradient>
<mask id="beamMask"><rect x="56" y="130" width="1088" height="120" fill="url(#falloff)"/></mask>
</defs>

<rect width="1200" height="300" rx="16" fill="#121110"/>
<g clip-path="url(#clip)"><path d="M40 0V300M80 0V300M120 0V300M160 0V300M200 0V300M240 0V300M280 0V300M320 0V300M360 0V300M400 0V300M440 0V300M480 0V300M520 0V300M560 0V300M600 0V300M640 0V300M680 0V300M720 0V300M760 0V300M800 0V300M840 0V300M880 0V300M920 0V300M960 0V300M1000 0V300M1040 0V300M1080 0V300M1120 0V300M1160 0V300M0 40H1200M0 80H1200M0 120H1200M0 160H1200M0 200H1200M0 240H1200M0 280H1200" stroke="rgba(237,230,213,0.045)" stroke-width="1" fill="none"/></g>
<rect x="0.5" y="0.5" width="1199" height="299" rx="16" fill="none" stroke="rgba(237,230,213,0.10)"/>
<path d="M22 40L22 22L40 22" fill="none" stroke="rgba(237,230,213,0.22)" stroke-width="1.25"/><path d="M1178 40L1178 22L1160 22" fill="none" stroke="rgba(237,230,213,0.22)" stroke-width="1.25"/><path d="M22 260L22 278L40 278" fill="none" stroke="rgba(237,230,213,0.22)" stroke-width="1.25"/><path d="M1178 260L1178 278L1160 278" fill="none" stroke="rgba(237,230,213,0.22)" stroke-width="1.25"/>
<text x="56" y="96" font-family="ui-monospace,'SF Mono',SFMono-Regular,Menlo,Consolas,'Liberation Mono',monospace" font-size="44" fill="#ede6d5" font-weight="500">6,267</text>
<text x="56" y="124" font-family="ui-monospace,'SF Mono',SFMono-Regular,Menlo,Consolas,'Liberation Mono',monospace" font-size="13" fill="#8b8578" letter-spacing="2.4">CONTRIBUTIONS IN THE LAST YEAR</text>
<g clip-path="url(#plot)">
<path d="M56.00 250.00C56.25 250.00 58.48 250.00 58.98 250.00C59.48 250.00 61.46 250.00 61.96 250.00C62.46 250.00 64.45 250.00 64.94 250.00C65.44 250.00 67.43 250.00 67.92 250.00C68.42 250.00 70.41 250.00 70.90 250.00C71.40 250.00 73.39 250.00 73.88 250.00C74.38 250.00 76.37 250.00 76.87 250.00C77.36 250.00 79.35 250.00 79.85 250.00C80.34 250.00 82.33 250.00 82.83 250.00C83.32 250.00 85.31 250.00 85.81 250.00C86.31 250.00 88.29 250.00 88.79 250.00C89.29 250.00 91.27 250.00 91.77 250.00C92.27 250.00 94.25 250.00 94.75 250.00C95.25 250.00 97.23 250.01 97.73 250.00C98.23 249.99 100.22 249.87 100.71 249.86C101.21 249.85 103.20 249.86 103.69 249.86C104.19 249.86 106.18 249.86 106.67 249.86C107.17 249.86 109.16 249.86 109.65 249.86C110.15 249.86 112.14 249.86 112.64 249.86C113.13 249.86 115.12 249.91 115.62 249.86C116.11 249.81 118.10 249.33 118.60 249.30C119.09 249.26 121.08 249.43 121.58 249.44C122.07 249.45 124.06 249.44 124.56 249.44C125.06 249.44 127.04 249.44 127.54 249.44C128.04 249.44 130.02 249.44 130.52 249.44C131.02 249.44 133.00 249.44 133.50 249.44C134.00 249.44 135.99 249.45 136.48 249.44C136.98 249.43 138.97 249.31 139.46 249.30C139.96 249.29 141.95 249.30 142.44 249.30C142.94 249.30 144.93 249.30 145.42 249.30C145.92 249.30 147.91 249.30 148.41 249.30C148.90 249.30 150.89 249.30 151.39 249.30C151.88 249.30 153.87 249.30 154.37 249.30C154.86 249.30 156.85 249.24 157.35 249.30C157.84 249.36 159.83 249.95 160.33 250.00C160.83 250.05 162.81 249.89 163.31 249.86C163.81 249.82 165.79 249.60 166.29 249.58C166.79 249.56 168.77 249.58 169.27 249.58C169.77 249.58 171.76 249.58 172.25 249.58C172.75 249.58 174.74 249.58 175.23 249.58C175.73 249.58 177.72 249.63 178.21 249.58C178.71 249.53 180.70 249.07 181.19 249.02C181.69 248.97 183.68 249.00 184.18 249.02C184.67 249.04 186.66 249.28 187.16 249.30C187.65 249.32 189.64 249.30 190.14 249.30C190.63 249.30 192.62 249.30 193.12 249.30C193.61 249.30 195.60 249.30 196.10 249.30C196.60 249.30 198.58 249.25 199.08 249.30C199.58 249.35 201.56 249.80 202.06 249.86C202.56 249.92 204.54 249.99 205.04 250.00C205.54 250.01 207.53 250.00 208.02 250.00C208.52 250.00 210.51 250.00 211.00 250.00C211.50 250.00 213.49 250.00 213.98 250.00C214.48 250.00 216.47 250.12 216.96 250.00C217.46 249.88 219.45 248.72 219.95 248.60C220.44 248.48 222.43 248.60 222.93 248.60C223.42 248.60 225.41 248.60 225.91 248.60C226.40 248.60 228.39 248.60 228.89 248.60C229.38 248.60 231.37 248.60 231.87 248.60C232.37 248.60 234.35 248.60 234.85 248.60C235.35 248.60 237.33 248.48 237.83 248.60C238.33 248.72 240.31 249.98 240.81 250.00C241.31 250.02 243.29 249.47 243.79 248.88C244.29 248.28 246.28 243.36 246.77 242.86C247.27 242.36 249.26 242.86 249.75 242.86C250.25 242.86 252.24 242.86 252.73 242.86C253.23 242.86 255.22 242.86 255.72 242.86C256.21 242.86 258.20 242.86 258.70 242.86C259.19 242.86 261.18 242.76 261.68 242.86C262.17 242.95 264.16 243.38 264.66 243.98C265.15 244.57 267.14 249.50 267.64 250.00C268.14 250.50 270.12 250.00 270.62 250.00C271.12 250.00 273.10 250.00 273.60 250.00C274.10 250.00 276.08 250.00 276.58 250.00C277.08 250.00 279.06 250.00 279.56 250.00C280.06 250.00 282.05 250.00 282.54 250.00C283.04 250.00 285.03 250.00 285.52 250.00C286.02 250.00 288.01 250.00 288.50 250.00C289.00 250.00 290.99 250.00 291.48 250.00C291.98 250.00 293.97 250.00 294.47 250.00C294.96 250.00 296.95 250.00 297.45 250.00C297.94 250.00 299.93 250.00 300.43 250.00C300.92 250.00 302.91 250.00 303.41 250.00C303.91 250.00 305.89 250.00 306.39 250.00C306.89 250.00 308.87 250.00 309.37 250.00C309.87 250.00 311.85 250.00 312.35 250.00C312.85 250.00 314.83 250.00 315.33 250.00C315.83 250.00 317.82 250.00 318.31 250.00C318.81 250.00 320.80 250.00 321.29 250.00C321.79 250.00 323.78 250.00 324.27 250.00C324.77 250.00 326.76 250.00 327.25 250.00C327.75 250.00 329.74 250.00 330.24 250.00C330.73 250.00 332.72 250.00 333.22 250.00C333.71 250.00 335.70 250.01 336.20 250.00C336.69 249.99 338.68 249.88 339.18 249.86C339.67 249.84 341.66 249.73 342.16 249.72C342.66 249.71 344.64 249.72 345.14 249.72C345.64 249.72 347.62 249.72 348.12 249.72C348.62 249.72 350.60 249.72 351.10 249.72C351.60 249.72 353.59 249.72 354.08 249.72C354.58 249.72 356.57 249.71 357.06 249.72C357.56 249.73 359.55 249.84 360.04 249.86C360.54 249.88 362.53 249.99 363.02 250.00C363.52 250.01 365.51 250.00 366.01 250.00C366.50 250.00 368.49 250.00 368.99 250.00C369.48 250.00 371.47 250.00 371.97 250.00C372.46 250.00 374.45 250.00 374.95 250.00C375.44 250.00 377.43 250.00 377.93 250.00C378.43 250.00 380.41 250.00 380.91 250.00C381.41 250.00 383.39 250.00 383.89 250.00C384.39 250.00 386.37 250.00 386.87 250.00C387.37 250.00 389.36 250.00 389.85 250.00C390.35 250.00 392.34 250.05 392.83 250.00C393.33 249.95 395.32 249.58 395.81 249.44C396.31 249.30 398.30 248.41 398.79 248.32C399.29 248.23 401.28 248.32 401.78 248.32C402.27 248.32 404.26 248.32 404.76 248.32C405.25 248.32 407.24 248.32 407.74 248.32C408.23 248.32 410.22 248.32 410.72 248.32C411.21 248.32 413.20 248.27 413.70 248.32C414.20 248.37 416.18 248.74 416.68 248.88C417.18 249.02 419.16 249.91 419.66 250.00C420.16 250.09 422.14 250.00 422.64 250.00C423.14 250.00 425.13 250.00 425.62 250.00C426.12 250.00 428.11 250.00 428.60 250.00C429.10 250.00 431.09 250.00 431.58 250.00C432.08 250.00 434.07 250.00 434.56 250.00C435.06 250.00 437.05 250.00 437.55 250.00C438.04 250.00 440.03 250.00 440.53 250.00C441.02 250.00 443.01 250.02 443.51 250.00C444.00 249.98 445.99 249.74 446.49 249.72C446.98 249.70 448.97 249.72 449.47 249.72C449.97 249.72 451.95 249.72 452.45 249.72C452.95 249.72 454.93 249.72 455.43 249.72C455.93 249.72 457.91 249.72 458.41 249.72C458.91 249.72 460.89 249.72 461.39 249.72C461.89 249.72 463.88 249.70 464.37 249.72C464.87 249.74 466.86 249.98 467.35 250.00C467.85 250.02 469.84 250.00 470.33 250.00C470.83 250.00 472.82 250.00 473.32 250.00C473.81 250.00 475.80 250.00 476.30 250.00C476.79 250.00 478.78 250.00 479.28 250.00C479.77 250.00 481.76 250.09 482.26 250.00C482.75 249.91 484.74 248.97 485.24 248.88C485.74 248.79 487.72 248.89 488.22 248.88C488.72 248.87 490.70 248.75 491.20 248.74C491.70 248.73 493.68 248.74 494.18 248.74C494.68 248.74 496.66 248.74 497.16 248.74C497.66 248.74 499.65 248.74 500.14 248.74C500.64 248.74 502.63 248.66 503.12 248.74C503.62 248.82 505.61 249.64 506.10 249.72C506.60 249.80 508.59 249.71 509.08 249.72C509.58 249.73 511.57 249.85 512.07 249.86C512.56 249.87 514.55 249.86 515.05 249.86C515.54 249.86 517.53 249.86 518.03 249.86C518.52 249.86 520.51 249.86 521.01 249.86C521.51 249.86 523.49 249.85 523.99 249.86C524.49 249.87 526.47 250.09 526.97 250.00C527.47 249.91 529.45 248.90 529.95 248.74C530.45 248.58 532.43 248.10 532.93 248.04C533.43 247.98 535.42 248.05 535.91 248.04C536.41 248.03 538.40 247.91 538.89 247.90C539.39 247.89 541.38 247.90 541.87 247.90C542.37 247.90 544.36 247.90 544.85 247.90C545.35 247.90 547.34 247.79 547.84 247.90C548.33 248.00 550.32 249.00 550.82 249.16C551.31 249.32 553.30 249.80 553.80 249.86C554.29 249.92 556.28 249.85 556.78 249.86C557.27 249.87 559.26 249.99 559.76 250.00C560.26 250.01 562.24 250.00 562.74 250.00C563.24 250.00 565.22 250.01 565.72 250.00C566.22 249.99 568.20 250.06 568.70 249.86C569.20 249.66 571.19 247.93 571.68 247.62C572.18 247.30 574.17 246.24 574.66 246.08C575.16 245.92 577.15 245.72 577.64 245.66C578.14 245.60 580.13 246.29 580.62 245.38C581.12 244.47 583.11 236.30 583.61 234.73C584.10 233.17 586.09 228.34 586.59 226.61C587.08 224.88 589.07 215.18 589.57 214.01C590.06 212.83 592.05 212.73 592.55 212.46C593.04 212.20 595.03 210.89 595.53 210.78C596.03 210.68 598.01 211.43 598.51 211.20C599.01 210.98 600.99 207.91 601.49 208.12C601.99 208.33 603.97 212.58 604.47 213.73C604.97 214.87 606.96 220.11 607.45 221.85C607.95 223.59 609.94 233.32 610.43 234.59C610.93 235.87 612.92 236.64 613.41 237.11C613.91 237.59 615.90 240.14 616.39 240.34C616.89 240.53 618.88 239.64 619.38 239.50C619.87 239.36 621.86 238.56 622.36 238.66C622.85 238.75 624.84 240.45 625.34 240.62C625.83 240.78 627.82 240.62 628.32 240.62C628.81 240.62 630.80 240.57 631.30 240.62C631.80 240.66 633.78 241.51 634.28 241.18C634.78 240.84 636.76 237.87 637.26 236.55C637.76 235.24 639.74 226.51 640.24 225.35C640.74 224.19 642.73 223.42 643.22 222.69C643.72 221.95 645.71 217.95 646.20 216.53C646.70 215.10 648.69 207.19 649.18 205.60C649.68 204.01 651.67 199.32 652.16 197.48C652.66 195.63 654.65 185.32 655.15 183.47C655.64 181.63 657.63 175.02 658.13 175.35C658.62 175.68 660.61 185.82 661.11 187.39C661.60 188.97 663.59 192.92 664.09 194.26C664.58 195.60 666.57 201.82 667.07 203.50C667.57 205.18 669.55 212.84 670.05 214.43C670.55 216.01 672.53 220.65 673.03 222.55C673.53 224.45 675.51 235.10 676.01 237.25C676.51 239.41 678.49 247.74 678.99 248.46C679.49 249.18 681.48 246.15 681.97 245.94C682.47 245.73 684.46 245.96 684.95 245.94C685.45 245.92 687.44 245.68 687.93 245.66C688.43 245.63 690.42 245.66 690.92 245.66C691.41 245.66 693.40 245.67 693.90 245.66C694.39 245.65 696.38 245.44 696.88 245.52C697.37 245.60 699.36 247.26 699.86 246.64C700.35 246.02 702.34 238.81 702.84 238.10C703.34 237.38 705.32 238.25 705.82 238.10C706.32 237.94 708.30 236.74 708.80 236.27C709.30 235.81 711.28 232.90 711.78 232.49C712.28 232.08 714.26 231.55 714.76 231.37C715.26 231.20 717.25 230.47 717.74 230.39C718.24 230.31 720.23 229.48 720.72 230.39C721.22 231.30 723.21 240.41 723.70 241.32C724.20 242.23 726.19 241.14 726.68 241.32C727.18 241.49 729.17 242.93 729.67 243.42C730.16 243.91 732.15 246.79 732.65 247.20C733.14 247.61 735.13 248.13 735.63 248.32C736.12 248.51 738.11 249.31 738.61 249.44C739.11 249.57 741.09 249.81 741.59 249.86C742.09 249.91 744.07 249.99 744.57 250.00C745.07 250.01 747.05 250.00 747.55 250.00C748.05 250.00 750.03 250.06 750.53 250.00C751.03 249.94 753.02 249.71 753.51 249.30C754.01 248.89 756.00 246.09 756.49 245.10C756.99 244.11 758.98 238.78 759.47 237.39C759.97 236.01 761.96 229.20 762.45 228.43C762.95 227.66 764.94 228.17 765.44 228.15C765.93 228.13 767.92 228.15 768.42 228.15C768.91 228.15 770.90 228.09 771.40 228.15C771.89 228.21 773.88 228.44 774.38 228.85C774.87 229.26 776.86 232.06 777.36 233.05C777.86 234.05 779.84 239.37 780.34 240.76C780.84 242.15 782.82 248.95 783.32 249.72C783.82 250.49 785.80 249.98 786.30 250.00C786.80 250.02 788.79 250.00 789.28 250.00C789.78 250.00 791.77 250.00 792.26 250.00C792.76 250.00 794.75 250.00 795.24 250.00C795.74 250.00 797.73 250.13 798.22 250.00C798.72 249.87 800.71 248.81 801.21 248.46C801.70 248.11 803.69 246.10 804.19 245.80C804.68 245.49 806.67 245.54 807.17 244.82C807.66 244.09 809.65 237.80 810.15 237.11C810.64 236.43 812.63 236.85 813.13 236.55C813.63 236.26 815.61 234.43 816.11 233.61C816.61 232.80 818.59 227.29 819.09 226.75C819.59 226.21 821.57 226.93 822.07 227.17C822.57 227.42 824.56 229.40 825.05 229.69C825.55 229.98 827.54 229.95 828.03 230.67C828.53 231.40 830.52 237.70 831.01 238.38C831.51 239.05 833.50 238.66 833.99 238.80C834.49 238.94 836.48 239.62 836.98 240.06C837.47 240.49 839.46 243.78 839.96 243.98C840.45 244.18 842.44 242.58 842.94 242.44C843.43 242.30 845.42 242.32 845.92 242.30C846.41 242.27 848.40 242.18 848.90 242.16C849.40 242.13 851.38 242.04 851.88 242.02C852.38 241.99 854.36 242.06 854.86 241.88C855.36 241.69 857.34 239.78 857.84 239.78C858.34 239.78 860.33 242.09 860.82 241.88C861.32 241.67 863.31 237.68 863.80 237.25C864.30 236.83 866.29 237.42 866.78 236.83C867.28 236.25 869.27 231.01 869.76 230.25C870.26 229.49 872.25 228.42 872.75 227.73C873.24 227.04 875.23 222.35 875.73 221.99C876.22 221.63 878.21 223.24 878.71 223.39C879.20 223.54 881.19 223.48 881.69 223.81C882.18 224.14 884.17 227.15 884.67 227.31C885.17 227.47 887.15 225.48 887.65 225.77C888.15 226.06 890.13 230.26 890.63 230.81C891.13 231.36 893.11 231.91 893.61 232.35C894.11 232.80 896.09 235.81 896.59 236.13C897.09 236.46 899.08 236.24 899.57 236.27C900.07 236.31 902.06 236.44 902.55 236.55C903.05 236.67 905.04 237.77 905.53 237.68C906.03 237.58 908.02 235.80 908.52 235.43C909.01 235.07 911.00 233.77 911.50 233.33C911.99 232.90 913.98 230.50 914.48 230.25C914.97 230.01 916.96 230.23 917.46 230.39C917.95 230.56 919.94 232.06 920.44 232.21C920.94 232.36 922.92 232.28 923.42 232.21C923.92 232.14 925.90 231.26 926.40 231.37C926.90 231.49 928.88 233.37 929.38 233.61C929.88 233.86 931.86 234.05 932.36 234.31C932.86 234.58 934.85 236.47 935.34 236.83C935.84 237.20 937.83 238.47 938.32 238.66C938.82 238.84 940.81 239.04 941.30 239.08C941.80 239.11 943.79 238.92 944.28 239.08C944.78 239.23 946.77 240.78 947.27 240.90C947.76 241.01 949.75 240.64 950.25 240.48C950.74 240.31 952.73 239.26 953.23 238.94C953.72 238.61 955.71 237.07 956.21 236.55C956.71 236.04 958.69 233.09 959.19 232.77C959.69 232.46 961.67 234.41 962.17 232.77C962.67 231.14 964.65 215.30 965.15 213.17C965.65 211.03 967.63 208.70 968.13 207.14C968.63 205.59 970.62 196.27 971.11 194.54C971.61 192.81 973.60 187.34 974.09 186.41C974.59 185.49 976.58 183.53 977.07 183.47C977.57 183.42 979.56 185.69 980.05 185.71C980.55 185.74 982.54 182.59 983.04 183.75C983.53 184.92 985.52 200.39 986.02 199.72C986.51 199.05 988.50 178.22 989.00 175.77C989.49 173.32 991.48 170.60 991.98 170.31C992.47 170.02 994.46 172.96 994.96 172.27C995.46 171.58 997.44 163.90 997.94 162.04C998.44 160.19 1000.42 151.00 1000.92 150.00C1001.42 149.00 1003.40 150.00 1003.90 150.00C1004.40 150.00 1006.39 150.00 1006.88 150.00C1007.38 150.00 1009.37 150.00 1009.86 150.00C1010.36 150.00 1012.35 150.00 1012.84 150.00C1013.34 150.00 1015.33 150.00 1015.82 150.00C1016.32 150.00 1018.31 150.00 1018.81 150.00C1019.30 150.00 1021.29 150.00 1021.79 150.00C1022.28 150.00 1024.27 146.91 1024.77 150.00C1025.26 153.09 1027.25 183.11 1027.75 187.11C1028.24 191.12 1030.23 196.93 1030.73 198.04C1031.23 199.15 1033.21 200.19 1033.71 200.42C1034.21 200.65 1036.19 200.27 1036.69 200.84C1037.19 201.41 1039.17 205.95 1039.67 207.28C1040.17 208.61 1042.16 217.09 1042.65 216.81C1043.15 216.53 1045.14 205.12 1045.63 203.92C1046.13 202.72 1048.12 202.08 1048.61 202.38C1049.11 202.68 1051.10 207.05 1051.59 207.56C1052.09 208.08 1054.08 207.25 1054.58 208.54C1055.07 209.84 1057.06 221.46 1057.56 223.11C1058.05 224.75 1060.04 227.71 1060.54 228.29C1061.03 228.87 1063.02 230.23 1063.52 230.11C1064.01 230.00 1066.00 230.75 1066.50 226.89C1067.00 223.03 1068.98 187.72 1069.48 183.75C1069.98 179.79 1071.96 180.31 1072.46 179.27C1072.96 178.23 1074.94 171.95 1075.44 171.29C1075.94 170.62 1077.93 172.82 1078.42 171.29C1078.92 169.76 1080.91 154.72 1081.40 152.94C1081.90 151.17 1083.89 150.25 1084.38 150.00C1084.88 149.75 1086.87 148.24 1087.36 150.00C1087.86 151.76 1089.85 169.09 1090.35 171.15C1090.84 173.20 1092.83 174.52 1093.33 174.65C1093.82 174.78 1095.81 173.82 1096.31 172.69C1096.80 171.56 1098.79 160.50 1099.29 161.06C1099.78 161.62 1101.77 175.82 1102.27 179.41C1102.77 183.01 1104.75 201.18 1105.25 204.20C1105.75 207.22 1107.73 213.85 1108.23 215.69C1108.73 217.52 1110.71 225.37 1111.21 226.19C1111.71 227.01 1113.69 224.74 1114.19 225.49C1114.69 226.24 1116.68 235.26 1117.17 235.15C1117.67 235.05 1119.66 225.70 1120.15 224.23C1120.65 222.76 1122.64 218.55 1123.13 217.51C1123.63 216.47 1125.62 212.90 1126.12 211.76C1126.61 210.63 1128.60 204.67 1129.10 203.92C1129.59 203.17 1131.58 202.96 1132.08 202.80C1132.57 202.64 1134.56 202.66 1135.06 201.96C1135.55 201.26 1137.54 193.37 1138.04 194.44C1138.54 195.52 1140.52 212.95 1141.02 214.90C1141.52 216.86 1143.75 217.64 1144.00 217.89L1144 250L56 250Z" fill="url(#under)"/>
<path d="M56.00 250.00C56.25 250.00 58.48 250.00 58.98 250.00C59.48 250.00 61.46 250.00 61.96 250.00C62.46 250.00 64.45 250.00 64.94 250.00C65.44 250.00 67.43 250.00 67.92 250.00C68.42 250.00 70.41 250.00 70.90 250.00C71.40 250.00 73.39 250.00 73.88 250.00C74.38 250.00 76.37 250.00 76.87 250.00C77.36 250.00 79.35 250.00 79.85 250.00C80.34 250.00 82.33 250.00 82.83 250.00C83.32 250.00 85.31 250.00 85.81 250.00C86.31 250.00 88.29 250.00 88.79 250.00C89.29 250.00 91.27 250.00 91.77 250.00C92.27 250.00 94.25 250.00 94.75 250.00C95.25 250.00 97.23 250.01 97.73 250.00C98.23 249.99 100.22 249.87 100.71 249.86C101.21 249.85 103.20 249.86 103.69 249.86C104.19 249.86 106.18 249.86 106.67 249.86C107.17 249.86 109.16 249.86 109.65 249.86C110.15 249.86 112.14 249.86 112.64 249.86C113.13 249.86 115.12 249.91 115.62 249.86C116.11 249.81 118.10 249.33 118.60 249.30C119.09 249.26 121.08 249.43 121.58 249.44C122.07 249.45 124.06 249.44 124.56 249.44C125.06 249.44 127.04 249.44 127.54 249.44C128.04 249.44 130.02 249.44 130.52 249.44C131.02 249.44 133.00 249.44 133.50 249.44C134.00 249.44 135.99 249.45 136.48 249.44C136.98 249.43 138.97 249.31 139.46 249.30C139.96 249.29 141.95 249.30 142.44 249.30C142.94 249.30 144.93 249.30 145.42 249.30C145.92 249.30 147.91 249.30 148.41 249.30C148.90 249.30 150.89 249.30 151.39 249.30C151.88 249.30 153.87 249.30 154.37 249.30C154.86 249.30 156.85 249.24 157.35 249.30C157.84 249.36 159.83 249.95 160.33 250.00C160.83 250.05 162.81 249.89 163.31 249.86C163.81 249.82 165.79 249.60 166.29 249.58C166.79 249.56 168.77 249.58 169.27 249.58C169.77 249.58 171.76 249.58 172.25 249.58C172.75 249.58 174.74 249.58 175.23 249.58C175.73 249.58 177.72 249.63 178.21 249.58C178.71 249.53 180.70 249.07 181.19 249.02C181.69 248.97 183.68 249.00 184.18 249.02C184.67 249.04 186.66 249.28 187.16 249.30C187.65 249.32 189.64 249.30 190.14 249.30C190.63 249.30 192.62 249.30 193.12 249.30C193.61 249.30 195.60 249.30 196.10 249.30C196.60 249.30 198.58 249.25 199.08 249.30C199.58 249.35 201.56 249.80 202.06 249.86C202.56 249.92 204.54 249.99 205.04 250.00C205.54 250.01 207.53 250.00 208.02 250.00C208.52 250.00 210.51 250.00 211.00 250.00C211.50 250.00 213.49 250.00 213.98 250.00C214.48 250.00 216.47 250.12 216.96 250.00C217.46 249.88 219.45 248.72 219.95 248.60C220.44 248.48 222.43 248.60 222.93 248.60C223.42 248.60 225.41 248.60 225.91 248.60C226.40 248.60 228.39 248.60 228.89 248.60C229.38 248.60 231.37 248.60 231.87 248.60C232.37 248.60 234.35 248.60 234.85 248.60C235.35 248.60 237.33 248.48 237.83 248.60C238.33 248.72 240.31 249.98 240.81 250.00C241.31 250.02 243.29 249.47 243.79 248.88C244.29 248.28 246.28 243.36 246.77 242.86C247.27 242.36 249.26 242.86 249.75 242.86C250.25 242.86 252.24 242.86 252.73 242.86C253.23 242.86 255.22 242.86 255.72 242.86C256.21 242.86 258.20 242.86 258.70 242.86C259.19 242.86 261.18 242.76 261.68 242.86C262.17 242.95 264.16 243.38 264.66 243.98C265.15 244.57 267.14 249.50 267.64 250.00C268.14 250.50 270.12 250.00 270.62 250.00C271.12 250.00 273.10 250.00 273.60 250.00C274.10 250.00 276.08 250.00 276.58 250.00C277.08 250.00 279.06 250.00 279.56 250.00C280.06 250.00 282.05 250.00 282.54 250.00C283.04 250.00 285.03 250.00 285.52 250.00C286.02 250.00 288.01 250.00 288.50 250.00C289.00 250.00 290.99 250.00 291.48 250.00C291.98 250.00 293.97 250.00 294.47 250.00C294.96 250.00 296.95 250.00 297.45 250.00C297.94 250.00 299.93 250.00 300.43 250.00C300.92 250.00 302.91 250.00 303.41 250.00C303.91 250.00 305.89 250.00 306.39 250.00C306.89 250.00 308.87 250.00 309.37 250.00C309.87 250.00 311.85 250.00 312.35 250.00C312.85 250.00 314.83 250.00 315.33 250.00C315.83 250.00 317.82 250.00 318.31 250.00C318.81 250.00 320.80 250.00 321.29 250.00C321.79 250.00 323.78 250.00 324.27 250.00C324.77 250.00 326.76 250.00 327.25 250.00C327.75 250.00 329.74 250.00 330.24 250.00C330.73 250.00 332.72 250.00 333.22 250.00C333.71 250.00 335.70 250.01 336.20 250.00C336.69 249.99 338.68 249.88 339.18 249.86C339.67 249.84 341.66 249.73 342.16 249.72C342.66 249.71 344.64 249.72 345.14 249.72C345.64 249.72 347.62 249.72 348.12 249.72C348.62 249.72 350.60 249.72 351.10 249.72C351.60 249.72 353.59 249.72 354.08 249.72C354.58 249.72 356.57 249.71 357.06 249.72C357.56 249.73 359.55 249.84 360.04 249.86C360.54 249.88 362.53 249.99 363.02 250.00C363.52 250.01 365.51 250.00 366.01 250.00C366.50 250.00 368.49 250.00 368.99 250.00C369.48 250.00 371.47 250.00 371.97 250.00C372.46 250.00 374.45 250.00 374.95 250.00C375.44 250.00 377.43 250.00 377.93 250.00C378.43 250.00 380.41 250.00 380.91 250.00C381.41 250.00 383.39 250.00 383.89 250.00C384.39 250.00 386.37 250.00 386.87 250.00C387.37 250.00 389.36 250.00 389.85 250.00C390.35 250.00 392.34 250.05 392.83 250.00C393.33 249.95 395.32 249.58 395.81 249.44C396.31 249.30 398.30 248.41 398.79 248.32C399.29 248.23 401.28 248.32 401.78 248.32C402.27 248.32 404.26 248.32 404.76 248.32C405.25 248.32 407.24 248.32 407.74 248.32C408.23 248.32 410.22 248.32 410.72 248.32C411.21 248.32 413.20 248.27 413.70 248.32C414.20 248.37 416.18 248.74 416.68 248.88C417.18 249.02 419.16 249.91 419.66 250.00C420.16 250.09 422.14 250.00 422.64 250.00C423.14 250.00 425.13 250.00 425.62 250.00C426.12 250.00 428.11 250.00 428.60 250.00C429.10 250.00 431.09 250.00 431.58 250.00C432.08 250.00 434.07 250.00 434.56 250.00C435.06 250.00 437.05 250.00 437.55 250.00C438.04 250.00 440.03 250.00 440.53 250.00C441.02 250.00 443.01 250.02 443.51 250.00C444.00 249.98 445.99 249.74 446.49 249.72C446.98 249.70 448.97 249.72 449.47 249.72C449.97 249.72 451.95 249.72 452.45 249.72C452.95 249.72 454.93 249.72 455.43 249.72C455.93 249.72 457.91 249.72 458.41 249.72C458.91 249.72 460.89 249.72 461.39 249.72C461.89 249.72 463.88 249.70 464.37 249.72C464.87 249.74 466.86 249.98 467.35 250.00C467.85 250.02 469.84 250.00 470.33 250.00C470.83 250.00 472.82 250.00 473.32 250.00C473.81 250.00 475.80 250.00 476.30 250.00C476.79 250.00 478.78 250.00 479.28 250.00C479.77 250.00 481.76 250.09 482.26 250.00C482.75 249.91 484.74 248.97 485.24 248.88C485.74 248.79 487.72 248.89 488.22 248.88C488.72 248.87 490.70 248.75 491.20 248.74C491.70 248.73 493.68 248.74 494.18 248.74C494.68 248.74 496.66 248.74 497.16 248.74C497.66 248.74 499.65 248.74 500.14 248.74C500.64 248.74 502.63 248.66 503.12 248.74C503.62 248.82 505.61 249.64 506.10 249.72C506.60 249.80 508.59 249.71 509.08 249.72C509.58 249.73 511.57 249.85 512.07 249.86C512.56 249.87 514.55 249.86 515.05 249.86C515.54 249.86 517.53 249.86 518.03 249.86C518.52 249.86 520.51 249.86 521.01 249.86C521.51 249.86 523.49 249.85 523.99 249.86C524.49 249.87 526.47 250.09 526.97 250.00C527.47 249.91 529.45 248.90 529.95 248.74C530.45 248.58 532.43 248.10 532.93 248.04C533.43 247.98 535.42 248.05 535.91 248.04C536.41 248.03 538.40 247.91 538.89 247.90C539.39 247.89 541.38 247.90 541.87 247.90C542.37 247.90 544.36 247.90 544.85 247.90C545.35 247.90 547.34 247.79 547.84 247.90C548.33 248.00 550.32 249.00 550.82 249.16C551.31 249.32 553.30 249.80 553.80 249.86C554.29 249.92 556.28 249.85 556.78 249.86C557.27 249.87 559.26 249.99 559.76 250.00C560.26 250.01 562.24 250.00 562.74 250.00C563.24 250.00 565.22 250.01 565.72 250.00C566.22 249.99 568.20 250.06 568.70 249.86C569.20 249.66 571.19 247.93 571.68 247.62C572.18 247.30 574.17 246.24 574.66 246.08C575.16 245.92 577.15 245.72 577.64 245.66C578.14 245.60 580.13 246.29 580.62 245.38C581.12 244.47 583.11 236.30 583.61 234.73C584.10 233.17 586.09 228.34 586.59 226.61C587.08 224.88 589.07 215.18 589.57 214.01C590.06 212.83 592.05 212.73 592.55 212.46C593.04 212.20 595.03 210.89 595.53 210.78C596.03 210.68 598.01 211.43 598.51 211.20C599.01 210.98 600.99 207.91 601.49 208.12C601.99 208.33 603.97 212.58 604.47 213.73C604.97 214.87 606.96 220.11 607.45 221.85C607.95 223.59 609.94 233.32 610.43 234.59C610.93 235.87 612.92 236.64 613.41 237.11C613.91 237.59 615.90 240.14 616.39 240.34C616.89 240.53 618.88 239.64 619.38 239.50C619.87 239.36 621.86 238.56 622.36 238.66C622.85 238.75 624.84 240.45 625.34 240.62C625.83 240.78 627.82 240.62 628.32 240.62C628.81 240.62 630.80 240.57 631.30 240.62C631.80 240.66 633.78 241.51 634.28 241.18C634.78 240.84 636.76 237.87 637.26 236.55C637.76 235.24 639.74 226.51 640.24 225.35C640.74 224.19 642.73 223.42 643.22 222.69C643.72 221.95 645.71 217.95 646.20 216.53C646.70 215.10 648.69 207.19 649.18 205.60C649.68 204.01 651.67 199.32 652.16 197.48C652.66 195.63 654.65 185.32 655.15 183.47C655.64 181.63 657.63 175.02 658.13 175.35C658.62 175.68 660.61 185.82 661.11 187.39C661.60 188.97 663.59 192.92 664.09 194.26C664.58 195.60 666.57 201.82 667.07 203.50C667.57 205.18 669.55 212.84 670.05 214.43C670.55 216.01 672.53 220.65 673.03 222.55C673.53 224.45 675.51 235.10 676.01 237.25C676.51 239.41 678.49 247.74 678.99 248.46C679.49 249.18 681.48 246.15 681.97 245.94C682.47 245.73 684.46 245.96 684.95 245.94C685.45 245.92 687.44 245.68 687.93 245.66C688.43 245.63 690.42 245.66 690.92 245.66C691.41 245.66 693.40 245.67 693.90 245.66C694.39 245.65 696.38 245.44 696.88 245.52C697.37 245.60 699.36 247.26 699.86 246.64C700.35 246.02 702.34 238.81 702.84 238.10C703.34 237.38 705.32 238.25 705.82 238.10C706.32 237.94 708.30 236.74 708.80 236.27C709.30 235.81 711.28 232.90 711.78 232.49C712.28 232.08 714.26 231.55 714.76 231.37C715.26 231.20 717.25 230.47 717.74 230.39C718.24 230.31 720.23 229.48 720.72 230.39C721.22 231.30 723.21 240.41 723.70 241.32C724.20 242.23 726.19 241.14 726.68 241.32C727.18 241.49 729.17 242.93 729.67 243.42C730.16 243.91 732.15 246.79 732.65 247.20C733.14 247.61 735.13 248.13 735.63 248.32C736.12 248.51 738.11 249.31 738.61 249.44C739.11 249.57 741.09 249.81 741.59 249.86C742.09 249.91 744.07 249.99 744.57 250.00C745.07 250.01 747.05 250.00 747.55 250.00C748.05 250.00 750.03 250.06 750.53 250.00C751.03 249.94 753.02 249.71 753.51 249.30C754.01 248.89 756.00 246.09 756.49 245.10C756.99 244.11 758.98 238.78 759.47 237.39C759.97 236.01 761.96 229.20 762.45 228.43C762.95 227.66 764.94 228.17 765.44 228.15C765.93 228.13 767.92 228.15 768.42 228.15C768.91 228.15 770.90 228.09 771.40 228.15C771.89 228.21 773.88 228.44 774.38 228.85C774.87 229.26 776.86 232.06 777.36 233.05C777.86 234.05 779.84 239.37 780.34 240.76C780.84 242.15 782.82 248.95 783.32 249.72C783.82 250.49 785.80 249.98 786.30 250.00C786.80 250.02 788.79 250.00 789.28 250.00C789.78 250.00 791.77 250.00 792.26 250.00C792.76 250.00 794.75 250.00 795.24 250.00C795.74 250.00 797.73 250.13 798.22 250.00C798.72 249.87 800.71 248.81 801.21 248.46C801.70 248.11 803.69 246.10 804.19 245.80C804.68 245.49 806.67 245.54 807.17 244.82C807.66 244.09 809.65 237.80 810.15 237.11C810.64 236.43 812.63 236.85 813.13 236.55C813.63 236.26 815.61 234.43 816.11 233.61C816.61 232.80 818.59 227.29 819.09 226.75C819.59 226.21 821.57 226.93 822.07 227.17C822.57 227.42 824.56 229.40 825.05 229.69C825.55 229.98 827.54 229.95 828.03 230.67C828.53 231.40 830.52 237.70 831.01 238.38C831.51 239.05 833.50 238.66 833.99 238.80C834.49 238.94 836.48 239.62 836.98 240.06C837.47 240.49 839.46 243.78 839.96 243.98C840.45 244.18 842.44 242.58 842.94 242.44C843.43 242.30 845.42 242.32 845.92 242.30C846.41 242.27 848.40 242.18 848.90 242.16C849.40 242.13 851.38 242.04 851.88 242.02C852.38 241.99 854.36 242.06 854.86 241.88C855.36 241.69 857.34 239.78 857.84 239.78C858.34 239.78 860.33 242.09 860.82 241.88C861.32 241.67 863.31 237.68 863.80 237.25C864.30 236.83 866.29 237.42 866.78 236.83C867.28 236.25 869.27 231.01 869.76 230.25C870.26 229.49 872.25 228.42 872.75 227.73C873.24 227.04 875.23 222.35 875.73 221.99C876.22 221.63 878.21 223.24 878.71 223.39C879.20 223.54 881.19 223.48 881.69 223.81C882.18 224.14 884.17 227.15 884.67 227.31C885.17 227.47 887.15 225.48 887.65 225.77C888.15 226.06 890.13 230.26 890.63 230.81C891.13 231.36 893.11 231.91 893.61 232.35C894.11 232.80 896.09 235.81 896.59 236.13C897.09 236.46 899.08 236.24 899.57 236.27C900.07 236.31 902.06 236.44 902.55 236.55C903.05 236.67 905.04 237.77 905.53 237.68C906.03 237.58 908.02 235.80 908.52 235.43C909.01 235.07 911.00 233.77 911.50 233.33C911.99 232.90 913.98 230.50 914.48 230.25C914.97 230.01 916.96 230.23 917.46 230.39C917.95 230.56 919.94 232.06 920.44 232.21C920.94 232.36 922.92 232.28 923.42 232.21C923.92 232.14 925.90 231.26 926.40 231.37C926.90 231.49 928.88 233.37 929.38 233.61C929.88 233.86 931.86 234.05 932.36 234.31C932.86 234.58 934.85 236.47 935.34 236.83C935.84 237.20 937.83 238.47 938.32 238.66C938.82 238.84 940.81 239.04 941.30 239.08C941.80 239.11 943.79 238.92 944.28 239.08C944.78 239.23 946.77 240.78 947.27 240.90C947.76 241.01 949.75 240.64 950.25 240.48C950.74 240.31 952.73 239.26 953.23 238.94C953.72 238.61 955.71 237.07 956.21 236.55C956.71 236.04 958.69 233.09 959.19 232.77C959.69 232.46 961.67 234.41 962.17 232.77C962.67 231.14 964.65 215.30 965.15 213.17C965.65 211.03 967.63 208.70 968.13 207.14C968.63 205.59 970.62 196.27 971.11 194.54C971.61 192.81 973.60 187.34 974.09 186.41C974.59 185.49 976.58 183.53 977.07 183.47C977.57 183.42 979.56 185.69 980.05 185.71C980.55 185.74 982.54 182.59 983.04 183.75C983.53 184.92 985.52 200.39 986.02 199.72C986.51 199.05 988.50 178.22 989.00 175.77C989.49 173.32 991.48 170.60 991.98 170.31C992.47 170.02 994.46 172.96 994.96 172.27C995.46 171.58 997.44 163.90 997.94 162.04C998.44 160.19 1000.42 151.00 1000.92 150.00C1001.42 149.00 1003.40 150.00 1003.90 150.00C1004.40 150.00 1006.39 150.00 1006.88 150.00C1007.38 150.00 1009.37 150.00 1009.86 150.00C1010.36 150.00 1012.35 150.00 1012.84 150.00C1013.34 150.00 1015.33 150.00 1015.82 150.00C1016.32 150.00 1018.31 150.00 1018.81 150.00C1019.30 150.00 1021.29 150.00 1021.79 150.00C1022.28 150.00 1024.27 146.91 1024.77 150.00C1025.26 153.09 1027.25 183.11 1027.75 187.11C1028.24 191.12 1030.23 196.93 1030.73 198.04C1031.23 199.15 1033.21 200.19 1033.71 200.42C1034.21 200.65 1036.19 200.27 1036.69 200.84C1037.19 201.41 1039.17 205.95 1039.67 207.28C1040.17 208.61 1042.16 217.09 1042.65 216.81C1043.15 216.53 1045.14 205.12 1045.63 203.92C1046.13 202.72 1048.12 202.08 1048.61 202.38C1049.11 202.68 1051.10 207.05 1051.59 207.56C1052.09 208.08 1054.08 207.25 1054.58 208.54C1055.07 209.84 1057.06 221.46 1057.56 223.11C1058.05 224.75 1060.04 227.71 1060.54 228.29C1061.03 228.87 1063.02 230.23 1063.52 230.11C1064.01 230.00 1066.00 230.75 1066.50 226.89C1067.00 223.03 1068.98 187.72 1069.48 183.75C1069.98 179.79 1071.96 180.31 1072.46 179.27C1072.96 178.23 1074.94 171.95 1075.44 171.29C1075.94 170.62 1077.93 172.82 1078.42 171.29C1078.92 169.76 1080.91 154.72 1081.40 152.94C1081.90 151.17 1083.89 150.25 1084.38 150.00C1084.88 149.75 1086.87 148.24 1087.36 150.00C1087.86 151.76 1089.85 169.09 1090.35 171.15C1090.84 173.20 1092.83 174.52 1093.33 174.65C1093.82 174.78 1095.81 173.82 1096.31 172.69C1096.80 171.56 1098.79 160.50 1099.29 161.06C1099.78 161.62 1101.77 175.82 1102.27 179.41C1102.77 183.01 1104.75 201.18 1105.25 204.20C1105.75 207.22 1107.73 213.85 1108.23 215.69C1108.73 217.52 1110.71 225.37 1111.21 226.19C1111.71 227.01 1113.69 224.74 1114.19 225.49C1114.69 226.24 1116.68 235.26 1117.17 235.15C1117.67 235.05 1119.66 225.70 1120.15 224.23C1120.65 222.76 1122.64 218.55 1123.13 217.51C1123.63 216.47 1125.62 212.90 1126.12 211.76C1126.61 210.63 1128.60 204.67 1129.10 203.92C1129.59 203.17 1131.58 202.96 1132.08 202.80C1132.57 202.64 1134.56 202.66 1135.06 201.96C1135.55 201.26 1137.54 193.37 1138.04 194.44C1138.54 195.52 1140.52 212.95 1141.02 214.90C1141.52 216.86 1143.75 217.64 1144.00 217.89" fill="none" stroke="#ede6d5" stroke-width="2" stroke-linecap="round" stroke-linejoin="round" class="trace"/>
<g class="sweep" mask="url(#beamMask)"><rect x="-64" y="130" width="120" height="120" fill="url(#beam)"/>
<line x1="56" y1="130" x2="56" y2="250" stroke="#2f9c82" stroke-width="1.5" opacity=".6"/></g>
</g>
<line x1="56" y1="250" x2="1144" y2="250" stroke="rgba(237,230,213,0.22)" stroke-width="1" />
<g>
<circle cx="1078.4" cy="171.3" r="3.5" fill="#d9483c"/>
<circle cx="1078.4" cy="171.3" r="8" fill="none" stroke="#d9483c" stroke-opacity=".45"/>
<text x="1078.4219178082192" y="153.28851540616245" font-family="ui-monospace,'SF Mono',SFMono-Regular,Menlo,Consolas,'Liberation Mono',monospace" font-size="12" fill="#a9a293" text-anchor="middle">325</text>
</g>
<line x1="56" y1="250" x2="56" y2="257" stroke="rgba(237,230,213,0.10)" stroke-width="1" />
<text x="56" y="276" font-family="ui-monospace,'SF Mono',SFMono-Regular,Menlo,Consolas,'Liberation Mono',monospace" font-size="12" fill="#8b8578" text-anchor="middle">O</text><line x1="136.48219178082192" y1="250" x2="136.48219178082192" y2="257" stroke="rgba(237,230,213,0.10)" stroke-width="1" />
<text x="136.48219178082192" y="276" font-family="ui-monospace,'SF Mono',SFMono-Regular,Menlo,Consolas,'Liberation Mono',monospace" font-size="12" fill="#8b8578" text-anchor="middle">N</text><line x1="225.90684931506848" y1="250" x2="225.90684931506848" y2="257" stroke="rgba(237,230,213,0.10)" stroke-width="1" />
<text x="225.90684931506848" y="276" font-family="ui-monospace,'SF Mono',SFMono-Regular,Menlo,Consolas,'Liberation Mono',monospace" font-size="12" fill="#8b8578" text-anchor="middle">D</text><line x1="318.3123287671233" y1="250" x2="318.3123287671233" y2="257" stroke="rgba(237,230,213,0.10)" stroke-width="1" />
<text x="318.3123287671233" y="276" font-family="ui-monospace,'SF Mono',SFMono-Regular,Menlo,Consolas,'Liberation Mono',monospace" font-size="12" fill="#8b8578" text-anchor="middle">J</text><line x1="410.7178082191781" y1="250" x2="410.7178082191781" y2="257" stroke="rgba(237,230,213,0.10)" stroke-width="1" />
<text x="410.7178082191781" y="276" font-family="ui-monospace,'SF Mono',SFMono-Regular,Menlo,Consolas,'Liberation Mono',monospace" font-size="12" fill="#8b8578" text-anchor="middle">F</text><line x1="494.1808219178082" y1="250" x2="494.1808219178082" y2="257" stroke="rgba(237,230,213,0.10)" stroke-width="1" />
<text x="494.1808219178082" y="276" font-family="ui-monospace,'SF Mono',SFMono-Regular,Menlo,Consolas,'Liberation Mono',monospace" font-size="12" fill="#8b8578" text-anchor="middle">M</text><line x1="586.586301369863" y1="250" x2="586.586301369863" y2="257" stroke="rgba(237,230,213,0.10)" stroke-width="1" />
<text x="586.586301369863" y="276" font-family="ui-monospace,'SF Mono',SFMono-Regular,Menlo,Consolas,'Liberation Mono',monospace" font-size="12" fill="#8b8578" text-anchor="middle">A</text><line x1="676.0109589041095" y1="250" x2="676.0109589041095" y2="257" stroke="rgba(237,230,213,0.10)" stroke-width="1" />
<text x="676.0109589041095" y="276" font-family="ui-monospace,'SF Mono',SFMono-Regular,Menlo,Consolas,'Liberation Mono',monospace" font-size="12" fill="#8b8578" text-anchor="middle">M</text><line x1="768.4164383561643" y1="250" x2="768.4164383561643" y2="257" stroke="rgba(237,230,213,0.10)" stroke-width="1" />
<text x="768.4164383561643" y="276" font-family="ui-monospace,'SF Mono',SFMono-Regular,Menlo,Consolas,'Liberation Mono',monospace" font-size="12" fill="#8b8578" text-anchor="middle">J</text><line x1="857.841095890411" y1="250" x2="857.841095890411" y2="257" stroke="rgba(237,230,213,0.10)" stroke-width="1" />
<text x="857.841095890411" y="276" font-family="ui-monospace,'SF Mono',SFMono-Regular,Menlo,Consolas,'Liberation Mono',monospace" font-size="12" fill="#8b8578" text-anchor="middle">J</text><line x1="950.2465753424658" y1="250" x2="950.2465753424658" y2="257" stroke="rgba(237,230,213,0.10)" stroke-width="1" />
<text x="950.2465753424658" y="276" font-family="ui-monospace,'SF Mono',SFMono-Regular,Menlo,Consolas,'Liberation Mono',monospace" font-size="12" fill="#8b8578" text-anchor="middle">A</text><line x1="1042.6520547945206" y1="250" x2="1042.6520547945206" y2="257" stroke="rgba(237,230,213,0.10)" stroke-width="1" />
<text x="1042.6520547945206" y="276" font-family="ui-monospace,'SF Mono',SFMono-Regular,Menlo,Consolas,'Liberation Mono',monospace" font-size="12" fill="#8b8578" text-anchor="middle">S</text>
</svg>